G75*
%MOIN*%
%OFA0B0*%
%FSLAX25Y25*%
%IPPOS*%
%LPD*%
%AMOC8*
5,1,8,0,0,1.08239X$1,22.5*
%
%ADD10R,0.07400X0.07400*%
%ADD11C,0.02978*%
%ADD12C,0.01600*%
%ADD13C,0.01200*%
%ADD14C,0.03175*%
%ADD15C,0.01000*%
D10*
X0005100Y0011343D03*
X0005100Y0021343D03*
X0005100Y0031343D03*
X0005100Y0041343D03*
X0005100Y0051343D03*
X0005100Y0061343D03*
X0005100Y0071343D03*
X0005100Y0081343D03*
X0083840Y0081343D03*
X0083840Y0071343D03*
X0083840Y0061343D03*
X0083840Y0051343D03*
X0083840Y0041343D03*
X0083840Y0031343D03*
X0083840Y0021343D03*
X0083840Y0011343D03*
D11*
X0072029Y0031028D03*
X0072029Y0040870D03*
X0068092Y0044020D03*
X0056281Y0050713D03*
X0055494Y0057504D03*
X0060218Y0070398D03*
X0072423Y0076303D03*
X0046439Y0080240D03*
X0043289Y0065673D03*
X0026754Y0080240D03*
X0024785Y0068429D03*
X0023210Y0046087D03*
X0036596Y0031028D03*
D12*
X0072029Y0031028D02*
X0072029Y0040870D01*
D13*
X0055494Y0065673D02*
X0060218Y0070398D01*
X0055494Y0065673D02*
X0043289Y0065673D01*
D14*
X0030691Y0056618D03*
X0029903Y0067642D03*
X0030691Y0034571D03*
X0016911Y0029059D03*
D15*
X0007600Y0006543D02*
X0007600Y0004000D01*
X0081340Y0004000D01*
X0081340Y0006543D01*
X0079685Y0006543D01*
X0079040Y0007187D01*
X0079040Y0015498D01*
X0079685Y0016143D01*
X0081340Y0016143D01*
X0081340Y0016543D01*
X0079685Y0016543D01*
X0079040Y0017187D01*
X0079040Y0025498D01*
X0079685Y0026143D01*
X0081340Y0026143D01*
X0081340Y0026543D01*
X0079685Y0026543D01*
X0079040Y0027187D01*
X0079040Y0035498D01*
X0079685Y0036143D01*
X0081340Y0036143D01*
X0081340Y0036543D01*
X0079685Y0036543D01*
X0079040Y0037187D01*
X0079040Y0045498D01*
X0079685Y0046143D01*
X0081340Y0046143D01*
X0081340Y0046543D01*
X0079685Y0046543D01*
X0079040Y0047187D01*
X0079040Y0055498D01*
X0079685Y0056143D01*
X0081340Y0056143D01*
X0081340Y0056543D01*
X0079685Y0056543D01*
X0079040Y0057187D01*
X0079040Y0057429D01*
X0071661Y0050050D01*
X0070723Y0049113D01*
X0058342Y0049113D01*
X0057748Y0048518D01*
X0056796Y0048124D01*
X0055766Y0048124D01*
X0054815Y0048518D01*
X0054086Y0049246D01*
X0053692Y0050198D01*
X0053692Y0051228D01*
X0054086Y0052179D01*
X0054815Y0052907D01*
X0055766Y0053302D01*
X0056796Y0053302D01*
X0057748Y0052907D01*
X0058342Y0052313D01*
X0069398Y0052313D01*
X0079040Y0061955D01*
X0079040Y0065498D01*
X0079685Y0066143D01*
X0081340Y0066143D01*
X0081340Y0066543D01*
X0079685Y0066543D01*
X0079040Y0067187D01*
X0079040Y0069743D01*
X0069995Y0069743D01*
X0058083Y0057830D01*
X0058083Y0056989D01*
X0057689Y0056037D01*
X0056960Y0055309D01*
X0056009Y0054915D01*
X0054979Y0054915D01*
X0054027Y0055309D01*
X0053432Y0055904D01*
X0049221Y0055904D01*
X0048283Y0056841D01*
X0046170Y0058955D01*
X0027416Y0058955D01*
X0024417Y0055955D01*
X0024417Y0048389D01*
X0024677Y0048281D01*
X0025405Y0047553D01*
X0025799Y0046602D01*
X0025799Y0045572D01*
X0025405Y0044620D01*
X0024677Y0043892D01*
X0023725Y0043498D01*
X0022695Y0043498D01*
X0021744Y0043892D01*
X0021015Y0044620D01*
X0020621Y0045572D01*
X0020621Y0046602D01*
X0021015Y0047553D01*
X0021217Y0047754D01*
X0021217Y0057281D01*
X0025154Y0061218D01*
X0026091Y0062155D01*
X0047495Y0062155D01*
X0050546Y0059104D01*
X0053432Y0059104D01*
X0054027Y0059699D01*
X0054979Y0060093D01*
X0055820Y0060093D01*
X0068670Y0072943D01*
X0079040Y0072943D01*
X0079040Y0075498D01*
X0079685Y0076143D01*
X0081340Y0076143D01*
X0081340Y0076543D01*
X0079685Y0076543D01*
X0079040Y0077187D01*
X0079040Y0079743D01*
X0078125Y0079743D01*
X0075012Y0076629D01*
X0075012Y0075788D01*
X0074618Y0074837D01*
X0073889Y0074108D01*
X0072938Y0073714D01*
X0071908Y0073714D01*
X0070956Y0074108D01*
X0070228Y0074837D01*
X0069834Y0075788D01*
X0069834Y0076818D01*
X0070228Y0077770D01*
X0070956Y0078498D01*
X0071908Y0078892D01*
X0072749Y0078892D01*
X0075862Y0082005D01*
X0076799Y0082943D01*
X0079040Y0082943D01*
X0079040Y0085498D01*
X0079685Y0086143D01*
X0081340Y0086143D01*
X0081340Y0089551D01*
X0007600Y0089551D01*
X0007600Y0086143D01*
X0009256Y0086143D01*
X0009900Y0085498D01*
X0009900Y0077187D01*
X0009256Y0076543D01*
X0007600Y0076543D01*
X0007600Y0076143D01*
X0009256Y0076143D01*
X0009900Y0075498D01*
X0009900Y0067187D01*
X0009256Y0066543D01*
X0007600Y0066543D01*
X0007600Y0066143D01*
X0009256Y0066143D01*
X0009900Y0065498D01*
X0009900Y0057187D01*
X0009256Y0056543D01*
X0007600Y0056543D01*
X0007600Y0056143D01*
X0009256Y0056143D01*
X0009900Y0055498D01*
X0009900Y0047187D01*
X0009256Y0046543D01*
X0007600Y0046543D01*
X0007600Y0046143D01*
X0009256Y0046143D01*
X0009900Y0045498D01*
X0009900Y0042943D01*
X0010093Y0042943D01*
X0016865Y0036171D01*
X0028490Y0036171D01*
X0029168Y0036849D01*
X0030156Y0037258D01*
X0031225Y0037258D01*
X0032213Y0036849D01*
X0032969Y0036093D01*
X0033378Y0035105D01*
X0033378Y0034036D01*
X0032969Y0033049D01*
X0032213Y0032293D01*
X0031225Y0031883D01*
X0030156Y0031883D01*
X0029168Y0032293D01*
X0028490Y0032971D01*
X0015540Y0032971D01*
X0014602Y0033908D01*
X0014602Y0033908D01*
X0009900Y0038611D01*
X0009900Y0037187D01*
X0009256Y0036543D01*
X0007600Y0036543D01*
X0007600Y0036143D01*
X0009256Y0036143D01*
X0009900Y0035498D01*
X0009900Y0027187D01*
X0009256Y0026543D01*
X0007600Y0026543D01*
X0007600Y0026143D01*
X0009256Y0026143D01*
X0009900Y0025498D01*
X0009900Y0017187D01*
X0009256Y0016543D01*
X0007600Y0016543D01*
X0007600Y0016143D01*
X0009256Y0016143D01*
X0009900Y0015498D01*
X0009900Y0007187D01*
X0009256Y0006543D01*
X0007600Y0006543D01*
X0007600Y0006493D02*
X0081340Y0006493D01*
X0081340Y0005494D02*
X0007600Y0005494D01*
X0007600Y0004496D02*
X0081340Y0004496D01*
X0079040Y0007491D02*
X0009900Y0007491D01*
X0009900Y0008490D02*
X0079040Y0008490D01*
X0079040Y0009488D02*
X0009900Y0009488D01*
X0009900Y0010487D02*
X0079040Y0010487D01*
X0079040Y0011485D02*
X0009900Y0011485D01*
X0009900Y0012484D02*
X0079040Y0012484D01*
X0079040Y0013482D02*
X0009900Y0013482D01*
X0009900Y0014481D02*
X0079040Y0014481D01*
X0079040Y0015479D02*
X0009900Y0015479D01*
X0009900Y0017476D02*
X0079040Y0017476D01*
X0079040Y0018475D02*
X0009900Y0018475D01*
X0009900Y0019473D02*
X0079040Y0019473D01*
X0079040Y0020472D02*
X0009900Y0020472D01*
X0009900Y0021470D02*
X0079040Y0021470D01*
X0079040Y0022469D02*
X0009900Y0022469D01*
X0009900Y0023467D02*
X0079040Y0023467D01*
X0079040Y0024466D02*
X0009900Y0024466D01*
X0009900Y0025464D02*
X0079040Y0025464D01*
X0079040Y0027461D02*
X0009900Y0027461D01*
X0009900Y0028460D02*
X0071463Y0028460D01*
X0071514Y0028439D02*
X0072544Y0028439D01*
X0073496Y0028833D01*
X0074224Y0029561D01*
X0074618Y0030513D01*
X0074618Y0031543D01*
X0074224Y0032494D01*
X0073929Y0032789D01*
X0073929Y0039109D01*
X0074224Y0039404D01*
X0074618Y0040355D01*
X0074618Y0041385D01*
X0074224Y0042337D01*
X0073496Y0043065D01*
X0072544Y0043459D01*
X0071514Y0043459D01*
X0070563Y0043065D01*
X0069834Y0042337D01*
X0069440Y0041385D01*
X0069440Y0040355D01*
X0069834Y0039404D01*
X0070129Y0039109D01*
X0070129Y0032789D01*
X0069834Y0032494D01*
X0069440Y0031543D01*
X0069440Y0030513D01*
X0069834Y0029561D01*
X0070563Y0028833D01*
X0071514Y0028439D01*
X0072595Y0028460D02*
X0079040Y0028460D01*
X0079040Y0029458D02*
X0074121Y0029458D01*
X0074595Y0030457D02*
X0079040Y0030457D01*
X0079040Y0031455D02*
X0074618Y0031455D01*
X0074241Y0032454D02*
X0079040Y0032454D01*
X0079040Y0033452D02*
X0073929Y0033452D01*
X0073929Y0034451D02*
X0079040Y0034451D01*
X0079040Y0035449D02*
X0073929Y0035449D01*
X0073929Y0036448D02*
X0081340Y0036448D01*
X0079040Y0037446D02*
X0073929Y0037446D01*
X0073929Y0038445D02*
X0079040Y0038445D01*
X0079040Y0039443D02*
X0074240Y0039443D01*
X0074618Y0040442D02*
X0079040Y0040442D01*
X0079040Y0041440D02*
X0074595Y0041440D01*
X0074122Y0042439D02*
X0079040Y0042439D01*
X0079040Y0043437D02*
X0072596Y0043437D01*
X0071462Y0043437D02*
X0046651Y0043437D01*
X0046651Y0042439D02*
X0069937Y0042439D01*
X0069463Y0041440D02*
X0046651Y0041440D01*
X0046651Y0040442D02*
X0069440Y0040442D01*
X0069818Y0039443D02*
X0046651Y0039443D01*
X0046651Y0039275D02*
X0046065Y0038689D01*
X0045237Y0038689D01*
X0035829Y0038689D01*
X0035001Y0038689D01*
X0034415Y0039275D01*
X0034415Y0050339D01*
X0035001Y0050925D01*
X0046065Y0050925D01*
X0046651Y0050339D01*
X0046651Y0039275D01*
X0046651Y0044436D02*
X0079040Y0044436D01*
X0079040Y0045434D02*
X0046651Y0045434D01*
X0046651Y0046433D02*
X0081340Y0046433D01*
X0079040Y0047432D02*
X0046651Y0047432D01*
X0046651Y0048430D02*
X0055026Y0048430D01*
X0054011Y0049429D02*
X0046651Y0049429D01*
X0046564Y0050427D02*
X0053692Y0050427D01*
X0053774Y0051426D02*
X0024417Y0051426D01*
X0024417Y0050427D02*
X0034503Y0050427D01*
X0034415Y0049429D02*
X0024417Y0049429D01*
X0024417Y0048430D02*
X0034415Y0048430D01*
X0034415Y0047432D02*
X0025455Y0047432D01*
X0025799Y0046433D02*
X0034415Y0046433D01*
X0034415Y0045434D02*
X0025742Y0045434D01*
X0025221Y0044436D02*
X0034415Y0044436D01*
X0034415Y0043437D02*
X0009900Y0043437D01*
X0009900Y0044436D02*
X0021199Y0044436D01*
X0020678Y0045434D02*
X0009900Y0045434D01*
X0009900Y0047432D02*
X0020965Y0047432D01*
X0021217Y0048430D02*
X0009900Y0048430D01*
X0009900Y0049429D02*
X0021217Y0049429D01*
X0021217Y0050427D02*
X0009900Y0050427D01*
X0009900Y0051426D02*
X0021217Y0051426D01*
X0021217Y0052424D02*
X0009900Y0052424D01*
X0009900Y0053423D02*
X0021217Y0053423D01*
X0021217Y0054421D02*
X0009900Y0054421D01*
X0009900Y0055420D02*
X0021217Y0055420D01*
X0021217Y0056418D02*
X0007600Y0056418D01*
X0009900Y0057417D02*
X0021352Y0057417D01*
X0022351Y0058415D02*
X0009900Y0058415D01*
X0009900Y0059414D02*
X0023349Y0059414D01*
X0024348Y0060412D02*
X0009900Y0060412D01*
X0009900Y0061411D02*
X0025346Y0061411D01*
X0026754Y0060555D02*
X0046832Y0060555D01*
X0049883Y0057504D01*
X0055494Y0057504D01*
X0069332Y0071343D01*
X0083840Y0071343D01*
X0081340Y0076388D02*
X0075012Y0076388D01*
X0074847Y0075390D02*
X0079040Y0075390D01*
X0079040Y0074391D02*
X0074172Y0074391D01*
X0072423Y0076303D02*
X0077462Y0081343D01*
X0083840Y0081343D01*
X0079040Y0079384D02*
X0077766Y0079384D01*
X0076768Y0078385D02*
X0079040Y0078385D01*
X0079040Y0077387D02*
X0075769Y0077387D01*
X0073241Y0079384D02*
X0029201Y0079384D01*
X0029343Y0079725D02*
X0028948Y0078774D01*
X0028220Y0078045D01*
X0027269Y0077651D01*
X0026427Y0077651D01*
X0026385Y0077609D01*
X0026385Y0070491D01*
X0026980Y0069896D01*
X0027374Y0068944D01*
X0027374Y0067914D01*
X0026980Y0066963D01*
X0026252Y0066234D01*
X0025300Y0065840D01*
X0024270Y0065840D01*
X0023318Y0066234D01*
X0022590Y0066963D01*
X0022196Y0067914D01*
X0022196Y0068944D01*
X0022590Y0069896D01*
X0023185Y0070491D01*
X0023185Y0078934D01*
X0024165Y0079914D01*
X0024165Y0080755D01*
X0024559Y0081707D01*
X0025287Y0082435D01*
X0026239Y0082829D01*
X0027269Y0082829D01*
X0028220Y0082435D01*
X0028948Y0081707D01*
X0029343Y0080755D01*
X0029343Y0079725D01*
X0029343Y0080382D02*
X0074239Y0080382D01*
X0075238Y0081381D02*
X0029083Y0081381D01*
X0028276Y0082379D02*
X0076236Y0082379D01*
X0079040Y0083378D02*
X0009900Y0083378D01*
X0009900Y0084376D02*
X0079040Y0084376D01*
X0079040Y0085375D02*
X0009900Y0085375D01*
X0007600Y0086373D02*
X0081340Y0086373D01*
X0081340Y0087372D02*
X0007600Y0087372D01*
X0007600Y0088370D02*
X0081340Y0088370D01*
X0081340Y0089369D02*
X0007600Y0089369D01*
X0009900Y0082379D02*
X0025231Y0082379D01*
X0024424Y0081381D02*
X0009900Y0081381D01*
X0009900Y0080382D02*
X0024165Y0080382D01*
X0023635Y0079384D02*
X0009900Y0079384D01*
X0009900Y0078385D02*
X0023185Y0078385D01*
X0023185Y0077387D02*
X0009900Y0077387D01*
X0009900Y0075390D02*
X0023185Y0075390D01*
X0023185Y0076388D02*
X0007600Y0076388D01*
X0009900Y0074391D02*
X0023185Y0074391D01*
X0023185Y0073393D02*
X0009900Y0073393D01*
X0009900Y0072394D02*
X0023185Y0072394D01*
X0023185Y0071396D02*
X0009900Y0071396D01*
X0009900Y0070397D02*
X0023092Y0070397D01*
X0022384Y0069399D02*
X0009900Y0069399D01*
X0009900Y0068400D02*
X0022196Y0068400D01*
X0022408Y0067402D02*
X0009900Y0067402D01*
X0009900Y0065405D02*
X0040700Y0065405D01*
X0040700Y0065158D02*
X0041094Y0064207D01*
X0041822Y0063478D01*
X0042774Y0063084D01*
X0043804Y0063084D01*
X0044756Y0063478D01*
X0045250Y0063973D01*
X0056198Y0063973D01*
X0060033Y0067809D01*
X0060733Y0067809D01*
X0061685Y0068203D01*
X0062413Y0068931D01*
X0062807Y0069883D01*
X0062807Y0070913D01*
X0062413Y0071864D01*
X0061685Y0072592D01*
X0060733Y0072987D01*
X0059703Y0072987D01*
X0058752Y0072592D01*
X0058023Y0071864D01*
X0057629Y0070913D01*
X0057629Y0070213D01*
X0054790Y0067373D01*
X0045250Y0067373D01*
X0044756Y0067868D01*
X0043804Y0068262D01*
X0042774Y0068262D01*
X0041822Y0067868D01*
X0041094Y0067140D01*
X0040700Y0066188D01*
X0040700Y0065158D01*
X0041011Y0064406D02*
X0009900Y0064406D01*
X0009900Y0063408D02*
X0041993Y0063408D01*
X0044585Y0063408D02*
X0059135Y0063408D01*
X0060133Y0064406D02*
X0056631Y0064406D01*
X0057629Y0065405D02*
X0061132Y0065405D01*
X0062130Y0066403D02*
X0058628Y0066403D01*
X0059626Y0067402D02*
X0063129Y0067402D01*
X0064127Y0068400D02*
X0061882Y0068400D01*
X0062607Y0069399D02*
X0065126Y0069399D01*
X0066124Y0070397D02*
X0062807Y0070397D01*
X0062607Y0071396D02*
X0067123Y0071396D01*
X0068121Y0072394D02*
X0061883Y0072394D01*
X0058553Y0072394D02*
X0041139Y0072394D01*
X0041139Y0071396D02*
X0057829Y0071396D01*
X0057629Y0070397D02*
X0041139Y0070397D01*
X0041139Y0070377D02*
X0041139Y0078292D01*
X0040554Y0078878D01*
X0032639Y0078878D01*
X0032053Y0078292D01*
X0032053Y0070377D01*
X0032639Y0069791D01*
X0033467Y0069791D01*
X0039725Y0069791D01*
X0040554Y0069791D01*
X0041139Y0070377D01*
X0041356Y0067402D02*
X0027162Y0067402D01*
X0027374Y0068400D02*
X0055817Y0068400D01*
X0056815Y0069399D02*
X0027186Y0069399D01*
X0026478Y0070397D02*
X0032053Y0070397D01*
X0032053Y0071396D02*
X0026385Y0071396D01*
X0026385Y0072394D02*
X0032053Y0072394D01*
X0032053Y0073393D02*
X0026385Y0073393D01*
X0026385Y0074391D02*
X0032053Y0074391D01*
X0032053Y0075390D02*
X0026385Y0075390D01*
X0026385Y0076388D02*
X0032053Y0076388D01*
X0032053Y0077387D02*
X0026385Y0077387D01*
X0024785Y0078272D02*
X0026754Y0080240D01*
X0028560Y0078385D02*
X0032146Y0078385D01*
X0024785Y0078272D02*
X0024785Y0068429D01*
X0023150Y0066403D02*
X0007600Y0066403D01*
X0009900Y0062409D02*
X0058136Y0062409D01*
X0057138Y0061411D02*
X0048239Y0061411D01*
X0049238Y0060412D02*
X0056139Y0060412D01*
X0058668Y0058415D02*
X0075500Y0058415D01*
X0074502Y0057417D02*
X0058083Y0057417D01*
X0057846Y0056418D02*
X0073503Y0056418D01*
X0072505Y0055420D02*
X0057071Y0055420D01*
X0058231Y0052424D02*
X0069509Y0052424D01*
X0070508Y0053423D02*
X0024417Y0053423D01*
X0024417Y0054421D02*
X0071506Y0054421D01*
X0074035Y0052424D02*
X0079040Y0052424D01*
X0079040Y0053423D02*
X0075033Y0053423D01*
X0076032Y0054421D02*
X0079040Y0054421D01*
X0079040Y0055420D02*
X0077030Y0055420D01*
X0078029Y0056418D02*
X0081340Y0056418D01*
X0079040Y0057417D02*
X0079027Y0057417D01*
X0076499Y0059414D02*
X0059666Y0059414D01*
X0060665Y0060412D02*
X0077497Y0060412D01*
X0078496Y0061411D02*
X0061663Y0061411D01*
X0062662Y0062409D02*
X0079040Y0062409D01*
X0079040Y0063408D02*
X0063660Y0063408D01*
X0064659Y0064406D02*
X0079040Y0064406D01*
X0079040Y0065405D02*
X0065657Y0065405D01*
X0066656Y0066403D02*
X0081340Y0066403D01*
X0079040Y0067402D02*
X0067654Y0067402D01*
X0068653Y0068400D02*
X0079040Y0068400D01*
X0079040Y0069399D02*
X0069651Y0069399D01*
X0070673Y0074391D02*
X0041139Y0074391D01*
X0041139Y0073393D02*
X0079040Y0073393D01*
X0070844Y0078385D02*
X0041046Y0078385D01*
X0041139Y0077387D02*
X0070069Y0077387D01*
X0069834Y0076388D02*
X0041139Y0076388D01*
X0041139Y0075390D02*
X0069999Y0075390D01*
X0080691Y0061343D02*
X0083840Y0061343D01*
X0080691Y0061343D02*
X0070061Y0050713D01*
X0056281Y0050713D01*
X0054331Y0052424D02*
X0024417Y0052424D01*
X0024417Y0055420D02*
X0053917Y0055420D01*
X0053742Y0059414D02*
X0050236Y0059414D01*
X0047708Y0057417D02*
X0025878Y0057417D01*
X0026876Y0058415D02*
X0046710Y0058415D01*
X0048707Y0056418D02*
X0024879Y0056418D01*
X0022817Y0056618D02*
X0026754Y0060555D01*
X0022817Y0056618D02*
X0022817Y0046480D01*
X0023210Y0046087D01*
X0020621Y0046433D02*
X0007600Y0046433D01*
X0010597Y0042439D02*
X0034415Y0042439D01*
X0034415Y0041440D02*
X0011595Y0041440D01*
X0012594Y0040442D02*
X0034415Y0040442D01*
X0034415Y0039443D02*
X0013593Y0039443D01*
X0014591Y0038445D02*
X0070129Y0038445D01*
X0070129Y0037446D02*
X0015590Y0037446D01*
X0016588Y0036448D02*
X0028767Y0036448D01*
X0030691Y0034571D02*
X0016202Y0034571D01*
X0009431Y0041343D01*
X0005100Y0041343D01*
X0007600Y0036448D02*
X0012063Y0036448D01*
X0013061Y0035449D02*
X0009900Y0035449D01*
X0009900Y0034451D02*
X0014060Y0034451D01*
X0015058Y0033452D02*
X0009900Y0033452D01*
X0009900Y0032454D02*
X0029007Y0032454D01*
X0032374Y0032454D02*
X0069818Y0032454D01*
X0070129Y0033452D02*
X0033136Y0033452D01*
X0033378Y0034451D02*
X0070129Y0034451D01*
X0070129Y0035449D02*
X0033235Y0035449D01*
X0032614Y0036448D02*
X0070129Y0036448D01*
X0069440Y0031455D02*
X0009900Y0031455D01*
X0009900Y0030457D02*
X0069463Y0030457D01*
X0069937Y0029458D02*
X0009900Y0029458D01*
X0007600Y0026463D02*
X0081340Y0026463D01*
X0081340Y0016478D02*
X0007600Y0016478D01*
X0009900Y0037446D02*
X0011064Y0037446D01*
X0010066Y0038445D02*
X0009900Y0038445D01*
X0026421Y0066403D02*
X0040789Y0066403D01*
X0045222Y0067402D02*
X0054818Y0067402D01*
X0072038Y0050427D02*
X0079040Y0050427D01*
X0079040Y0049429D02*
X0071039Y0049429D01*
X0073036Y0051426D02*
X0079040Y0051426D01*
X0079040Y0048430D02*
X0057536Y0048430D01*
M02*
