G75*
%MOIN*%
%OFA0B0*%
%FSLAX25Y25*%
%IPPOS*%
%LPD*%
%AMOC8*
5,1,8,0,0,1.08239X$1,22.5*
%
%ADD10C,0.00000*%
%ADD11C,0.02165*%
%ADD12R,0.04331X0.03937*%
%ADD13R,0.03937X0.04331*%
%ADD14R,0.03150X0.01181*%
%ADD15R,0.01181X0.03150*%
%ADD16R,0.01181X0.02953*%
%ADD17R,0.02953X0.01181*%
%ADD18R,0.05000X0.02200*%
%ADD19R,0.07400X0.07400*%
%ADD20C,0.01000*%
%ADD21C,0.02978*%
%ADD22C,0.02400*%
%ADD23C,0.03175*%
%ADD24C,0.01200*%
%ADD25C,0.01600*%
D10*
X0005100Y0001500D02*
X0005100Y0092051D01*
X0083840Y0092051D01*
X0083840Y0001500D01*
X0005100Y0001500D01*
D11*
X0061399Y0047661D02*
X0064549Y0047661D01*
X0064549Y0047661D01*
X0061399Y0047661D01*
X0061399Y0047661D01*
X0061399Y0052583D02*
X0064549Y0052583D01*
X0064549Y0052583D01*
X0061399Y0052583D01*
X0061399Y0052583D01*
X0061399Y0057504D02*
X0064549Y0057504D01*
X0064549Y0057504D01*
X0061399Y0057504D01*
X0061399Y0057504D01*
X0061399Y0062425D02*
X0064549Y0062425D01*
X0064549Y0062425D01*
X0061399Y0062425D01*
X0061399Y0062425D01*
X0070848Y0062425D02*
X0073998Y0062425D01*
X0073998Y0062425D01*
X0070848Y0062425D01*
X0070848Y0062425D01*
X0070848Y0057504D02*
X0073998Y0057504D01*
X0073998Y0057504D01*
X0070848Y0057504D01*
X0070848Y0057504D01*
X0070848Y0052583D02*
X0073998Y0052583D01*
X0073998Y0052583D01*
X0070848Y0052583D01*
X0070848Y0052583D01*
X0070848Y0047661D02*
X0073998Y0047661D01*
X0073998Y0047661D01*
X0070848Y0047661D01*
X0070848Y0047661D01*
D12*
X0066320Y0038902D03*
X0059628Y0038902D03*
X0047817Y0031028D03*
X0041124Y0031028D03*
X0030100Y0029059D03*
X0023407Y0029059D03*
X0024194Y0036933D03*
X0017502Y0036933D03*
X0039155Y0009374D03*
X0045848Y0009374D03*
X0062777Y0009374D03*
X0069470Y0009374D03*
X0059628Y0080240D03*
X0052935Y0080240D03*
D13*
X0055494Y0073744D03*
X0055494Y0067051D03*
X0048407Y0065870D03*
X0048407Y0059177D03*
X0054313Y0036343D03*
X0054313Y0029650D03*
X0054313Y0022563D03*
X0054313Y0015870D03*
X0066124Y0015870D03*
X0066124Y0022563D03*
X0042502Y0022563D03*
X0042502Y0015870D03*
X0014943Y0013902D03*
X0014943Y0020594D03*
X0016911Y0057209D03*
X0016911Y0063902D03*
X0024785Y0063902D03*
X0024785Y0057209D03*
D14*
X0030691Y0071382D03*
X0030691Y0073350D03*
X0030691Y0075319D03*
X0030691Y0077287D03*
X0042502Y0077287D03*
X0042502Y0075319D03*
X0042502Y0073350D03*
X0042502Y0071382D03*
D15*
X0039549Y0068429D03*
X0037580Y0068429D03*
X0035612Y0068429D03*
X0033643Y0068429D03*
X0033643Y0080240D03*
X0035612Y0080240D03*
X0037580Y0080240D03*
X0039549Y0080240D03*
D16*
X0039549Y0052681D03*
X0041517Y0052681D03*
X0043486Y0052681D03*
X0045454Y0052681D03*
X0037580Y0052681D03*
X0035612Y0052681D03*
X0035612Y0036933D03*
X0037580Y0036933D03*
X0039549Y0036933D03*
X0041517Y0036933D03*
X0043486Y0036933D03*
X0045454Y0036933D03*
D17*
X0048407Y0039886D03*
X0048407Y0041854D03*
X0048407Y0043823D03*
X0048407Y0045791D03*
X0048407Y0047760D03*
X0048407Y0049728D03*
X0032659Y0049728D03*
X0032659Y0047760D03*
X0032659Y0045791D03*
X0032659Y0043823D03*
X0032659Y0041854D03*
X0032659Y0039886D03*
D18*
X0033822Y0022917D03*
X0033822Y0019217D03*
X0033822Y0015517D03*
X0023622Y0015517D03*
X0023622Y0019217D03*
X0023622Y0022917D03*
D19*
X0005100Y0021343D03*
X0005100Y0011343D03*
X0005100Y0031343D03*
X0005100Y0041343D03*
X0005100Y0051343D03*
X0005100Y0061343D03*
X0005100Y0071343D03*
X0005100Y0081343D03*
X0083840Y0081343D03*
X0083840Y0071343D03*
X0083840Y0061343D03*
X0083840Y0051343D03*
X0083840Y0041343D03*
X0083840Y0031343D03*
X0083840Y0021343D03*
X0083840Y0011343D03*
D20*
X0081340Y0016143D02*
X0079685Y0016143D01*
X0079040Y0015498D01*
X0079040Y0007187D01*
X0079685Y0006543D01*
X0081340Y0006543D01*
X0081340Y0004000D01*
X0007600Y0004000D01*
X0007600Y0006143D01*
X0008997Y0006143D01*
X0009379Y0006245D01*
X0009721Y0006442D01*
X0010000Y0006721D01*
X0010198Y0007064D01*
X0010300Y0007445D01*
X0010300Y0010843D01*
X0007600Y0010843D01*
X0007600Y0011842D01*
X0010300Y0011842D01*
X0010300Y0015240D01*
X0010198Y0015621D01*
X0010182Y0015648D01*
X0011474Y0015648D01*
X0011474Y0014386D01*
X0014458Y0014386D01*
X0014458Y0013417D01*
X0015427Y0013417D01*
X0015427Y0010236D01*
X0017109Y0010236D01*
X0017490Y0010338D01*
X0017832Y0010536D01*
X0018111Y0010815D01*
X0018309Y0011157D01*
X0018411Y0011539D01*
X0018411Y0013417D01*
X0015427Y0013417D01*
X0015427Y0014386D01*
X0017510Y0014386D01*
X0018217Y0013680D01*
X0020303Y0013680D01*
X0020666Y0013317D01*
X0026578Y0013317D01*
X0027222Y0013961D01*
X0027222Y0017072D01*
X0027211Y0017084D01*
X0027322Y0017196D01*
X0027520Y0017538D01*
X0027622Y0017919D01*
X0027622Y0019167D01*
X0025204Y0019167D01*
X0025204Y0019267D01*
X0027622Y0019267D01*
X0027622Y0020514D01*
X0027520Y0020896D01*
X0027322Y0021238D01*
X0027211Y0021349D01*
X0027222Y0021361D01*
X0027222Y0024472D01*
X0026578Y0025117D01*
X0025204Y0025117D01*
X0025204Y0025991D01*
X0026028Y0025991D01*
X0026672Y0026635D01*
X0026672Y0031483D01*
X0026028Y0032128D01*
X0020786Y0032128D01*
X0020142Y0031483D01*
X0020142Y0031359D01*
X0018381Y0031359D01*
X0017446Y0031746D01*
X0016376Y0031746D01*
X0015389Y0031337D01*
X0014633Y0030581D01*
X0014224Y0029594D01*
X0014224Y0028691D01*
X0009900Y0028691D01*
X0009900Y0035498D01*
X0009256Y0036143D01*
X0007600Y0036143D01*
X0007600Y0036543D01*
X0009256Y0036543D01*
X0009900Y0037187D01*
X0009900Y0045498D01*
X0009256Y0046143D01*
X0007600Y0046143D01*
X0007600Y0046543D01*
X0009256Y0046543D01*
X0009900Y0047187D01*
X0009900Y0049113D01*
X0024122Y0049113D01*
X0025844Y0047391D01*
X0025472Y0047391D01*
X0025405Y0047553D01*
X0024677Y0048281D01*
X0023725Y0048676D01*
X0022695Y0048676D01*
X0021744Y0048281D01*
X0021015Y0047553D01*
X0020621Y0046602D01*
X0020621Y0045572D01*
X0021015Y0044620D01*
X0021744Y0043892D01*
X0022695Y0043498D01*
X0023725Y0043498D01*
X0024141Y0043670D01*
X0022594Y0042123D01*
X0022594Y0040002D01*
X0021573Y0040002D01*
X0021060Y0039488D01*
X0020867Y0039823D01*
X0020588Y0040102D01*
X0020246Y0040299D01*
X0019864Y0040402D01*
X0017986Y0040402D01*
X0017986Y0037417D01*
X0017017Y0037417D01*
X0017017Y0036449D01*
X0013836Y0036449D01*
X0013836Y0034767D01*
X0013938Y0034386D01*
X0014136Y0034044D01*
X0014415Y0033764D01*
X0014757Y0033567D01*
X0015139Y0033465D01*
X0017017Y0033465D01*
X0017017Y0036449D01*
X0017986Y0036449D01*
X0017986Y0033465D01*
X0019864Y0033465D01*
X0020246Y0033567D01*
X0020588Y0033764D01*
X0020867Y0034044D01*
X0021060Y0034378D01*
X0021573Y0033865D01*
X0026815Y0033865D01*
X0027460Y0034509D01*
X0027460Y0039357D01*
X0026815Y0040002D01*
X0025794Y0040002D01*
X0025794Y0040798D01*
X0027219Y0042223D01*
X0029683Y0042223D01*
X0029683Y0041854D01*
X0029683Y0041066D01*
X0029785Y0040685D01*
X0029982Y0040343D01*
X0030083Y0040242D01*
X0030083Y0038840D01*
X0030727Y0038195D01*
X0031059Y0038195D01*
X0031059Y0037258D01*
X0030156Y0037258D01*
X0029168Y0036849D01*
X0028412Y0036093D01*
X0028003Y0035105D01*
X0028003Y0034036D01*
X0028412Y0033049D01*
X0029168Y0032293D01*
X0029567Y0032128D01*
X0027479Y0032128D01*
X0026835Y0031483D01*
X0026835Y0026635D01*
X0027479Y0025991D01*
X0031522Y0025991D01*
X0031522Y0025117D01*
X0030866Y0025117D01*
X0030222Y0024472D01*
X0030222Y0021361D01*
X0030516Y0021067D01*
X0030222Y0020772D01*
X0030222Y0017661D01*
X0030516Y0017367D01*
X0030222Y0017072D01*
X0030222Y0013961D01*
X0030866Y0013317D01*
X0032122Y0013317D01*
X0032122Y0010656D01*
X0033118Y0009661D01*
X0035104Y0007674D01*
X0035890Y0007674D01*
X0035890Y0006950D01*
X0036534Y0006306D01*
X0041776Y0006306D01*
X0042289Y0006819D01*
X0042482Y0006484D01*
X0042762Y0006205D01*
X0043104Y0006008D01*
X0043485Y0005906D01*
X0045364Y0005906D01*
X0045364Y0008890D01*
X0046332Y0008890D01*
X0046332Y0005906D01*
X0048211Y0005906D01*
X0048592Y0006008D01*
X0048934Y0006205D01*
X0049214Y0006484D01*
X0049411Y0006827D01*
X0049513Y0007208D01*
X0049513Y0008890D01*
X0046332Y0008890D01*
X0046332Y0009858D01*
X0045364Y0009858D01*
X0045364Y0012489D01*
X0045391Y0012504D01*
X0045670Y0012784D01*
X0045868Y0013126D01*
X0045970Y0013507D01*
X0045970Y0015386D01*
X0042986Y0015386D01*
X0042986Y0016354D01*
X0045970Y0016354D01*
X0045970Y0017422D01*
X0048185Y0015207D01*
X0049122Y0014270D01*
X0051244Y0014270D01*
X0051244Y0013249D01*
X0051888Y0012605D01*
X0052613Y0012605D01*
X0052613Y0010638D01*
X0053608Y0009643D01*
X0055577Y0007674D01*
X0059512Y0007674D01*
X0059512Y0006950D01*
X0060156Y0006306D01*
X0065398Y0006306D01*
X0065911Y0006819D01*
X0066104Y0006484D01*
X0066384Y0006205D01*
X0066726Y0006008D01*
X0067107Y0005906D01*
X0068986Y0005906D01*
X0068986Y0008890D01*
X0069954Y0008890D01*
X0069954Y0005906D01*
X0071833Y0005906D01*
X0072214Y0006008D01*
X0072556Y0006205D01*
X0072836Y0006484D01*
X0073033Y0006827D01*
X0073135Y0007208D01*
X0073135Y0008890D01*
X0069954Y0008890D01*
X0069954Y0009858D01*
X0068986Y0009858D01*
X0068986Y0012843D01*
X0068786Y0012843D01*
X0069192Y0013249D01*
X0069192Y0018491D01*
X0068548Y0019135D01*
X0063699Y0019135D01*
X0063055Y0018491D01*
X0063055Y0017570D01*
X0057381Y0017570D01*
X0057381Y0018491D01*
X0056737Y0019135D01*
X0051888Y0019135D01*
X0051244Y0018491D01*
X0051244Y0017470D01*
X0050448Y0017470D01*
X0047101Y0020817D01*
X0045570Y0020817D01*
X0045570Y0020863D01*
X0051244Y0020863D01*
X0051244Y0019942D01*
X0051888Y0019298D01*
X0056737Y0019298D01*
X0057381Y0019942D01*
X0057381Y0020863D01*
X0063055Y0020863D01*
X0063055Y0019942D01*
X0063699Y0019298D01*
X0068548Y0019298D01*
X0069192Y0019942D01*
X0069192Y0025184D01*
X0068548Y0025828D01*
X0063699Y0025828D01*
X0063055Y0025184D01*
X0063055Y0024263D01*
X0057381Y0024263D01*
X0057381Y0025184D01*
X0056737Y0025828D01*
X0051888Y0025828D01*
X0051244Y0025184D01*
X0051244Y0024263D01*
X0045570Y0024263D01*
X0045570Y0025184D01*
X0044926Y0025828D01*
X0040077Y0025828D01*
X0039433Y0025184D01*
X0039433Y0024617D01*
X0037278Y0024617D01*
X0036778Y0025117D01*
X0036122Y0025117D01*
X0036122Y0028439D01*
X0037111Y0028439D01*
X0037858Y0028748D01*
X0037858Y0028603D01*
X0038503Y0027959D01*
X0043745Y0027959D01*
X0044258Y0028472D01*
X0044451Y0028138D01*
X0044730Y0027859D01*
X0045072Y0027661D01*
X0045454Y0027559D01*
X0047332Y0027559D01*
X0047332Y0030543D01*
X0048301Y0030543D01*
X0048301Y0027559D01*
X0050179Y0027559D01*
X0050561Y0027661D01*
X0050844Y0027825D01*
X0050844Y0027287D01*
X0050946Y0026905D01*
X0051144Y0026563D01*
X0051423Y0026284D01*
X0051765Y0026086D01*
X0052147Y0025984D01*
X0053828Y0025984D01*
X0053828Y0029165D01*
X0054797Y0029165D01*
X0054797Y0025984D01*
X0056479Y0025984D01*
X0056860Y0026086D01*
X0057202Y0026284D01*
X0057481Y0026563D01*
X0057679Y0026905D01*
X0057781Y0027287D01*
X0057781Y0029165D01*
X0054797Y0029165D01*
X0054797Y0030134D01*
X0057781Y0030134D01*
X0057781Y0032012D01*
X0057679Y0032394D01*
X0057481Y0032736D01*
X0057202Y0033015D01*
X0056868Y0033208D01*
X0057381Y0033722D01*
X0057381Y0035433D01*
X0059143Y0035433D01*
X0059143Y0038417D01*
X0060112Y0038417D01*
X0060112Y0035433D01*
X0061424Y0035433D01*
X0062555Y0034302D01*
X0063492Y0033365D01*
X0072692Y0033365D01*
X0077416Y0038089D01*
X0078354Y0039026D01*
X0078354Y0043593D01*
X0079040Y0044280D01*
X0079040Y0037187D01*
X0079685Y0036543D01*
X0081340Y0036543D01*
X0081340Y0036143D01*
X0079685Y0036143D01*
X0079040Y0035498D01*
X0079040Y0027187D01*
X0079685Y0026543D01*
X0081340Y0026543D01*
X0081340Y0026143D01*
X0079685Y0026143D01*
X0079040Y0025498D01*
X0079040Y0017187D01*
X0079685Y0016543D01*
X0081340Y0016543D01*
X0081340Y0016143D01*
X0081340Y0016478D02*
X0069192Y0016478D01*
X0069192Y0017476D02*
X0079040Y0017476D01*
X0079040Y0018475D02*
X0069192Y0018475D01*
X0068723Y0019473D02*
X0079040Y0019473D01*
X0079040Y0020472D02*
X0069192Y0020472D01*
X0069192Y0021470D02*
X0079040Y0021470D01*
X0079040Y0022469D02*
X0069192Y0022469D01*
X0069192Y0023467D02*
X0079040Y0023467D01*
X0079040Y0024466D02*
X0069192Y0024466D01*
X0068912Y0025464D02*
X0079040Y0025464D01*
X0079040Y0027461D02*
X0057781Y0027461D01*
X0057781Y0028460D02*
X0079040Y0028460D01*
X0079040Y0029458D02*
X0054797Y0029458D01*
X0054797Y0028460D02*
X0053828Y0028460D01*
X0053828Y0027461D02*
X0054797Y0027461D01*
X0054797Y0026463D02*
X0053828Y0026463D01*
X0051524Y0025464D02*
X0045290Y0025464D01*
X0045570Y0024466D02*
X0051244Y0024466D01*
X0051244Y0026463D02*
X0036122Y0026463D01*
X0036122Y0027461D02*
X0050844Y0027461D01*
X0048301Y0028460D02*
X0047332Y0028460D01*
X0047332Y0029458D02*
X0048301Y0029458D01*
X0048301Y0030457D02*
X0047332Y0030457D01*
X0047332Y0031512D02*
X0047332Y0034496D01*
X0047206Y0034496D01*
X0047245Y0034536D01*
X0047443Y0034878D01*
X0047545Y0035259D01*
X0047545Y0036933D01*
X0045454Y0036933D01*
X0045454Y0036933D01*
X0047545Y0036933D01*
X0047545Y0038195D01*
X0050339Y0038195D01*
X0050983Y0038840D01*
X0050983Y0040254D01*
X0052666Y0040254D01*
X0052713Y0040207D01*
X0052713Y0039608D01*
X0051888Y0039608D01*
X0051244Y0038964D01*
X0051244Y0033810D01*
X0051182Y0033917D01*
X0050903Y0034196D01*
X0050561Y0034394D01*
X0050179Y0034496D01*
X0048301Y0034496D01*
X0048301Y0031512D01*
X0047332Y0031512D01*
X0047332Y0032454D02*
X0048301Y0032454D01*
X0048301Y0033452D02*
X0047332Y0033452D01*
X0047332Y0034451D02*
X0048301Y0034451D01*
X0047545Y0035449D02*
X0051244Y0035449D01*
X0051244Y0034451D02*
X0050348Y0034451D01*
X0051244Y0036448D02*
X0047545Y0036448D01*
X0047545Y0037446D02*
X0051244Y0037446D01*
X0051244Y0038445D02*
X0050589Y0038445D01*
X0050983Y0039443D02*
X0051724Y0039443D01*
X0053328Y0041854D02*
X0054313Y0040870D01*
X0054313Y0036343D01*
X0057381Y0034451D02*
X0062406Y0034451D01*
X0063405Y0033452D02*
X0057112Y0033452D01*
X0057644Y0032454D02*
X0079040Y0032454D01*
X0079040Y0033452D02*
X0072780Y0033452D01*
X0073778Y0034451D02*
X0079040Y0034451D01*
X0079040Y0035449D02*
X0074777Y0035449D01*
X0075775Y0036448D02*
X0081340Y0036448D01*
X0079040Y0037446D02*
X0076774Y0037446D01*
X0077772Y0038445D02*
X0079040Y0038445D01*
X0079040Y0039443D02*
X0078354Y0039443D01*
X0078354Y0040442D02*
X0079040Y0040442D01*
X0079040Y0041440D02*
X0078354Y0041440D01*
X0078354Y0042439D02*
X0079040Y0042439D01*
X0079040Y0043437D02*
X0078354Y0043437D01*
X0076754Y0044256D02*
X0083840Y0051343D01*
X0079040Y0051426D02*
X0076314Y0051426D01*
X0076286Y0051359D02*
X0076481Y0051829D01*
X0076580Y0052328D01*
X0076580Y0052541D01*
X0072464Y0052541D01*
X0072464Y0052624D01*
X0076580Y0052624D01*
X0076580Y0052837D01*
X0076481Y0053336D01*
X0076286Y0053806D01*
X0076004Y0054229D01*
X0075644Y0054589D01*
X0075221Y0054871D01*
X0074998Y0054964D01*
X0074998Y0055123D01*
X0075221Y0055215D01*
X0075644Y0055498D01*
X0076004Y0055858D01*
X0076286Y0056281D01*
X0076481Y0056751D01*
X0076580Y0057250D01*
X0076580Y0057463D01*
X0072464Y0057463D01*
X0072464Y0057545D01*
X0076580Y0057545D01*
X0076580Y0057758D01*
X0076481Y0058257D01*
X0076286Y0058727D01*
X0076004Y0059150D01*
X0075644Y0059510D01*
X0075221Y0059793D01*
X0074998Y0059885D01*
X0074998Y0060338D01*
X0076180Y0061521D01*
X0076180Y0063329D01*
X0074902Y0064608D01*
X0074023Y0064608D01*
X0074023Y0074242D01*
X0074618Y0074837D01*
X0075012Y0075788D01*
X0075012Y0076818D01*
X0074618Y0077770D01*
X0073889Y0078498D01*
X0072938Y0078892D01*
X0071908Y0078892D01*
X0070956Y0078498D01*
X0070228Y0077770D01*
X0069834Y0076818D01*
X0069834Y0075788D01*
X0070228Y0074837D01*
X0070823Y0074242D01*
X0070823Y0066880D01*
X0063492Y0066880D01*
X0062555Y0065942D01*
X0061374Y0064761D01*
X0061374Y0064608D01*
X0060495Y0064608D01*
X0059217Y0063329D01*
X0059217Y0061521D01*
X0060006Y0060732D01*
X0060006Y0059197D01*
X0059912Y0059104D01*
X0057555Y0059104D01*
X0056960Y0059699D01*
X0056009Y0060093D01*
X0054979Y0060093D01*
X0054027Y0059699D01*
X0053299Y0058970D01*
X0052905Y0058019D01*
X0052905Y0056989D01*
X0053299Y0056037D01*
X0054027Y0055309D01*
X0054979Y0054915D01*
X0056009Y0054915D01*
X0056960Y0055309D01*
X0057555Y0055904D01*
X0059912Y0055904D01*
X0060495Y0055321D01*
X0065453Y0055321D01*
X0065517Y0055386D01*
X0065517Y0054701D01*
X0065453Y0054765D01*
X0060495Y0054765D01*
X0059912Y0054183D01*
X0057488Y0054183D01*
X0056607Y0053302D01*
X0055766Y0053302D01*
X0054815Y0052907D01*
X0054086Y0052179D01*
X0053734Y0051328D01*
X0050430Y0051328D01*
X0050339Y0051419D01*
X0047545Y0051419D01*
X0047545Y0052681D01*
X0045454Y0052681D01*
X0045454Y0055657D01*
X0044666Y0055657D01*
X0044285Y0055555D01*
X0043943Y0055358D01*
X0043842Y0055257D01*
X0037212Y0055257D01*
X0037212Y0062202D01*
X0036522Y0062892D01*
X0038296Y0062892D01*
X0039327Y0061861D01*
X0040264Y0060924D01*
X0044939Y0060924D01*
X0044939Y0059661D01*
X0047923Y0059661D01*
X0047923Y0058693D01*
X0048891Y0058693D01*
X0048891Y0055512D01*
X0050573Y0055512D01*
X0050955Y0055614D01*
X0051297Y0055812D01*
X0051576Y0056091D01*
X0051773Y0056433D01*
X0051876Y0056814D01*
X0051876Y0058693D01*
X0048891Y0058693D01*
X0048891Y0059661D01*
X0051876Y0059661D01*
X0051876Y0060924D01*
X0054582Y0060924D01*
X0057094Y0063436D01*
X0057094Y0063786D01*
X0057918Y0063786D01*
X0058562Y0064430D01*
X0058562Y0069672D01*
X0057918Y0070317D01*
X0053070Y0070317D01*
X0052425Y0069672D01*
X0052425Y0064430D01*
X0052732Y0064124D01*
X0051476Y0064124D01*
X0051476Y0068491D01*
X0050831Y0069135D01*
X0050007Y0069135D01*
X0050007Y0071060D01*
X0046117Y0074950D01*
X0045576Y0074950D01*
X0045576Y0075319D01*
X0045576Y0075687D01*
X0047154Y0075687D01*
X0049760Y0073081D01*
X0050697Y0072144D01*
X0052425Y0072144D01*
X0052425Y0071123D01*
X0053070Y0070479D01*
X0057918Y0070479D01*
X0058562Y0071123D01*
X0058562Y0076365D01*
X0058156Y0076772D01*
X0059143Y0076772D01*
X0059143Y0079756D01*
X0060112Y0079756D01*
X0060112Y0080724D01*
X0063293Y0080724D01*
X0063293Y0082406D01*
X0063191Y0082788D01*
X0062993Y0083130D01*
X0062714Y0083409D01*
X0062372Y0083606D01*
X0061990Y0083709D01*
X0060112Y0083709D01*
X0060112Y0080724D01*
X0059143Y0080724D01*
X0059143Y0083709D01*
X0057265Y0083709D01*
X0056883Y0083606D01*
X0056541Y0083409D01*
X0056262Y0083130D01*
X0056069Y0082795D01*
X0055556Y0083309D01*
X0050314Y0083309D01*
X0049669Y0082664D01*
X0049669Y0081940D01*
X0048400Y0081940D01*
X0047905Y0082435D01*
X0046954Y0082829D01*
X0045924Y0082829D01*
X0044972Y0082435D01*
X0044477Y0081940D01*
X0041239Y0081940D01*
X0041239Y0082271D01*
X0040595Y0082915D01*
X0037212Y0082915D01*
X0037212Y0083856D01*
X0036228Y0084840D01*
X0035290Y0085777D01*
X0022154Y0085777D01*
X0009900Y0073523D01*
X0009900Y0075498D01*
X0009256Y0076143D01*
X0007600Y0076143D01*
X0007600Y0076543D01*
X0009256Y0076543D01*
X0009900Y0077187D01*
X0009900Y0085498D01*
X0009256Y0086143D01*
X0007600Y0086143D01*
X0007600Y0089551D01*
X0081340Y0089551D01*
X0081340Y0086143D01*
X0079685Y0086143D01*
X0079040Y0085498D01*
X0079040Y0077187D01*
X0079685Y0076543D01*
X0081340Y0076543D01*
X0081340Y0076143D01*
X0079685Y0076143D01*
X0079040Y0075498D01*
X0079040Y0067187D01*
X0079685Y0066543D01*
X0081340Y0066543D01*
X0081340Y0066143D01*
X0079685Y0066143D01*
X0079040Y0065498D01*
X0079040Y0057187D01*
X0079685Y0056543D01*
X0081340Y0056543D01*
X0081340Y0056143D01*
X0079685Y0056143D01*
X0079040Y0055498D01*
X0079040Y0048805D01*
X0075154Y0044919D01*
X0075154Y0040352D01*
X0071366Y0036565D01*
X0069586Y0036565D01*
X0069586Y0041326D01*
X0069225Y0041687D01*
X0069559Y0041825D01*
X0070053Y0042320D01*
X0071552Y0042320D01*
X0072548Y0043316D01*
X0073127Y0043894D01*
X0074123Y0044890D01*
X0074123Y0045479D01*
X0074902Y0045479D01*
X0076180Y0046757D01*
X0076180Y0048566D01*
X0074998Y0049748D01*
X0074998Y0050201D01*
X0075221Y0050294D01*
X0075644Y0050577D01*
X0076004Y0050936D01*
X0076286Y0051359D01*
X0075420Y0050427D02*
X0079040Y0050427D01*
X0079040Y0049429D02*
X0075317Y0049429D01*
X0076180Y0048430D02*
X0078665Y0048430D01*
X0077666Y0047432D02*
X0076180Y0047432D01*
X0075856Y0046433D02*
X0076668Y0046433D01*
X0075669Y0045434D02*
X0074123Y0045434D01*
X0073668Y0044436D02*
X0075154Y0044436D01*
X0075154Y0043437D02*
X0072670Y0043437D01*
X0072548Y0043316D02*
X0072548Y0043316D01*
X0073127Y0043894D02*
X0073127Y0043894D01*
X0071671Y0042439D02*
X0075154Y0042439D01*
X0075154Y0041440D02*
X0069471Y0041440D01*
X0069586Y0040442D02*
X0075154Y0040442D01*
X0074245Y0039443D02*
X0069586Y0039443D01*
X0069586Y0038445D02*
X0073247Y0038445D01*
X0072248Y0037446D02*
X0069586Y0037446D01*
X0072029Y0034965D02*
X0076754Y0039689D01*
X0076754Y0044256D01*
X0076580Y0052424D02*
X0079040Y0052424D01*
X0079040Y0053423D02*
X0076445Y0053423D01*
X0075812Y0054421D02*
X0079040Y0054421D01*
X0079040Y0055420D02*
X0075527Y0055420D01*
X0076343Y0056418D02*
X0081340Y0056418D01*
X0079040Y0057417D02*
X0076580Y0057417D01*
X0076416Y0058415D02*
X0079040Y0058415D01*
X0079040Y0059414D02*
X0075740Y0059414D01*
X0075071Y0060412D02*
X0079040Y0060412D01*
X0079040Y0061411D02*
X0076070Y0061411D01*
X0076180Y0062409D02*
X0079040Y0062409D01*
X0079040Y0063408D02*
X0076102Y0063408D01*
X0075103Y0064406D02*
X0079040Y0064406D01*
X0079040Y0065405D02*
X0074023Y0065405D01*
X0074023Y0066403D02*
X0081340Y0066403D01*
X0079040Y0067402D02*
X0074023Y0067402D01*
X0074023Y0068400D02*
X0079040Y0068400D01*
X0079040Y0069399D02*
X0074023Y0069399D01*
X0074023Y0070397D02*
X0079040Y0070397D01*
X0079040Y0071396D02*
X0074023Y0071396D01*
X0074023Y0072394D02*
X0079040Y0072394D01*
X0079040Y0073393D02*
X0074023Y0073393D01*
X0074172Y0074391D02*
X0079040Y0074391D01*
X0079040Y0075390D02*
X0074847Y0075390D01*
X0075012Y0076388D02*
X0081340Y0076388D01*
X0079040Y0077387D02*
X0074776Y0077387D01*
X0074002Y0078385D02*
X0079040Y0078385D01*
X0079040Y0079384D02*
X0063293Y0079384D01*
X0063293Y0079756D02*
X0063293Y0078074D01*
X0063191Y0077693D01*
X0062993Y0077351D01*
X0062714Y0077071D01*
X0062372Y0076874D01*
X0061990Y0076772D01*
X0060112Y0076772D01*
X0060112Y0079756D01*
X0063293Y0079756D01*
X0063293Y0081381D02*
X0079040Y0081381D01*
X0079040Y0080382D02*
X0060112Y0080382D01*
X0060112Y0079384D02*
X0059143Y0079384D01*
X0059143Y0078385D02*
X0060112Y0078385D01*
X0060112Y0077387D02*
X0059143Y0077387D01*
X0058539Y0076388D02*
X0069834Y0076388D01*
X0069999Y0075390D02*
X0058562Y0075390D01*
X0058562Y0074391D02*
X0070673Y0074391D01*
X0070823Y0073393D02*
X0058562Y0073393D01*
X0058562Y0072394D02*
X0070823Y0072394D01*
X0070823Y0071396D02*
X0058562Y0071396D01*
X0058562Y0069399D02*
X0070823Y0069399D01*
X0070823Y0070397D02*
X0050007Y0070397D01*
X0050007Y0069399D02*
X0052425Y0069399D01*
X0052425Y0068400D02*
X0051476Y0068400D01*
X0051476Y0067402D02*
X0052425Y0067402D01*
X0052425Y0066403D02*
X0051476Y0066403D01*
X0051476Y0065405D02*
X0052425Y0065405D01*
X0052449Y0064406D02*
X0051476Y0064406D01*
X0053919Y0062524D02*
X0055494Y0064098D01*
X0055494Y0067051D01*
X0058562Y0067402D02*
X0070823Y0067402D01*
X0070823Y0068400D02*
X0058562Y0068400D01*
X0058562Y0066403D02*
X0063016Y0066403D01*
X0062555Y0065942D02*
X0062555Y0065942D01*
X0062018Y0065405D02*
X0058562Y0065405D01*
X0058538Y0064406D02*
X0060293Y0064406D01*
X0059295Y0063408D02*
X0057066Y0063408D01*
X0056067Y0062409D02*
X0059217Y0062409D01*
X0059327Y0061411D02*
X0055069Y0061411D01*
X0053919Y0062524D02*
X0040927Y0062524D01*
X0039549Y0063902D01*
X0039549Y0068429D01*
X0041239Y0068400D02*
X0045339Y0068400D01*
X0045339Y0068491D02*
X0045339Y0064124D01*
X0041590Y0064124D01*
X0041149Y0064564D01*
X0041149Y0066308D01*
X0041239Y0066399D01*
X0041239Y0069291D01*
X0042502Y0069291D01*
X0044274Y0069291D01*
X0044655Y0069394D01*
X0044997Y0069591D01*
X0045277Y0069870D01*
X0045474Y0070212D01*
X0045576Y0070594D01*
X0045576Y0070966D01*
X0046807Y0069735D01*
X0046807Y0069135D01*
X0045983Y0069135D01*
X0045339Y0068491D01*
X0045339Y0067402D02*
X0041239Y0067402D01*
X0041239Y0066403D02*
X0045339Y0066403D01*
X0045339Y0065405D02*
X0041149Y0065405D01*
X0041307Y0064406D02*
X0045339Y0064406D01*
X0048407Y0065870D02*
X0048407Y0070398D01*
X0045454Y0073350D01*
X0042502Y0073350D01*
X0042502Y0071382D02*
X0042502Y0069291D01*
X0042502Y0071382D01*
X0042502Y0071382D01*
X0042502Y0070397D02*
X0042502Y0070397D01*
X0042502Y0069399D02*
X0042502Y0069399D01*
X0044664Y0069399D02*
X0046807Y0069399D01*
X0046145Y0070397D02*
X0045524Y0070397D01*
X0047675Y0073393D02*
X0049448Y0073393D01*
X0048673Y0072394D02*
X0050447Y0072394D01*
X0049672Y0071396D02*
X0052425Y0071396D01*
X0051360Y0073744D02*
X0055494Y0073744D01*
X0051360Y0073744D02*
X0047817Y0077287D01*
X0042502Y0077287D01*
X0042502Y0075319D02*
X0045576Y0075319D01*
X0042502Y0075319D01*
X0042502Y0075319D01*
X0045576Y0075390D02*
X0047451Y0075390D01*
X0046676Y0074391D02*
X0048450Y0074391D01*
X0047961Y0082379D02*
X0049669Y0082379D01*
X0044916Y0082379D02*
X0041131Y0082379D01*
X0037212Y0083378D02*
X0056510Y0083378D01*
X0059143Y0083378D02*
X0060112Y0083378D01*
X0060112Y0082379D02*
X0059143Y0082379D01*
X0059143Y0081381D02*
X0060112Y0081381D01*
X0062745Y0083378D02*
X0079040Y0083378D01*
X0079040Y0084376D02*
X0036691Y0084376D01*
X0035692Y0085375D02*
X0079040Y0085375D01*
X0081340Y0086373D02*
X0007600Y0086373D01*
X0007600Y0087372D02*
X0081340Y0087372D01*
X0081340Y0088370D02*
X0007600Y0088370D01*
X0007600Y0089369D02*
X0081340Y0089369D01*
X0079040Y0082379D02*
X0063293Y0082379D01*
X0063293Y0078385D02*
X0070844Y0078385D01*
X0070069Y0077387D02*
X0063014Y0077387D01*
X0072423Y0076303D02*
X0072423Y0065280D01*
X0064155Y0065280D01*
X0062974Y0064098D01*
X0062974Y0062425D01*
X0060006Y0060412D02*
X0051876Y0060412D01*
X0051876Y0058415D02*
X0053069Y0058415D01*
X0052905Y0057417D02*
X0051876Y0057417D01*
X0051765Y0056418D02*
X0053141Y0056418D01*
X0053917Y0055420D02*
X0046859Y0055420D01*
X0046966Y0055358D02*
X0046699Y0055512D01*
X0047923Y0055512D01*
X0047923Y0058693D01*
X0044939Y0058693D01*
X0044939Y0056814D01*
X0045041Y0056433D01*
X0045238Y0056091D01*
X0045518Y0055812D01*
X0045784Y0055657D01*
X0045454Y0055657D01*
X0045454Y0052681D01*
X0045454Y0052681D01*
X0045454Y0052681D01*
X0047545Y0052681D01*
X0047545Y0054355D01*
X0047443Y0054736D01*
X0047245Y0055078D01*
X0046966Y0055358D01*
X0047527Y0054421D02*
X0060151Y0054421D01*
X0060397Y0055420D02*
X0057071Y0055420D01*
X0056728Y0053423D02*
X0047545Y0053423D01*
X0047545Y0052424D02*
X0054331Y0052424D01*
X0053774Y0051426D02*
X0047545Y0051426D01*
X0048407Y0049728D02*
X0055297Y0049728D01*
X0056281Y0050713D01*
X0058151Y0052583D01*
X0062974Y0052583D01*
X0062974Y0057504D02*
X0055494Y0057504D01*
X0057245Y0059414D02*
X0060006Y0059414D01*
X0053742Y0059414D02*
X0048891Y0059414D01*
X0047923Y0059414D02*
X0037212Y0059414D01*
X0037212Y0060412D02*
X0044939Y0060412D01*
X0044939Y0058415D02*
X0037212Y0058415D01*
X0037212Y0057417D02*
X0044939Y0057417D01*
X0045049Y0056418D02*
X0037212Y0056418D01*
X0037212Y0055420D02*
X0044050Y0055420D01*
X0045454Y0055420D02*
X0045454Y0055420D01*
X0045454Y0054421D02*
X0045454Y0054421D01*
X0045454Y0053423D02*
X0045454Y0053423D01*
X0047923Y0056418D02*
X0048891Y0056418D01*
X0048891Y0057417D02*
X0047923Y0057417D01*
X0047923Y0058415D02*
X0048891Y0058415D01*
X0039777Y0061411D02*
X0037212Y0061411D01*
X0037005Y0062409D02*
X0038778Y0062409D01*
X0037949Y0064492D02*
X0034922Y0064492D01*
X0034850Y0064564D01*
X0033912Y0065502D01*
X0027854Y0065502D01*
X0027854Y0066523D01*
X0027209Y0067167D01*
X0027064Y0067167D01*
X0027374Y0067914D01*
X0027374Y0068944D01*
X0026980Y0069896D01*
X0026754Y0070122D01*
X0026754Y0075687D01*
X0027616Y0075687D01*
X0027616Y0075319D01*
X0030690Y0075319D01*
X0030690Y0075319D01*
X0027616Y0075319D01*
X0027616Y0074531D01*
X0027718Y0074149D01*
X0027915Y0073807D01*
X0028016Y0073707D01*
X0028016Y0072994D01*
X0027915Y0072893D01*
X0027718Y0072551D01*
X0027616Y0072170D01*
X0027616Y0071382D01*
X0030690Y0071382D01*
X0030690Y0071382D01*
X0027616Y0071382D01*
X0027616Y0070594D01*
X0027718Y0070212D01*
X0027915Y0069870D01*
X0028195Y0069591D01*
X0028537Y0069394D01*
X0028918Y0069291D01*
X0030690Y0069291D01*
X0030690Y0071382D01*
X0030691Y0071382D01*
X0030691Y0068429D01*
X0031953Y0068429D01*
X0031953Y0066399D01*
X0032597Y0065754D01*
X0034000Y0065754D01*
X0034100Y0065654D01*
X0034442Y0065457D01*
X0034824Y0065354D01*
X0035612Y0065354D01*
X0036400Y0065354D01*
X0036781Y0065457D01*
X0037123Y0065654D01*
X0037224Y0065754D01*
X0037949Y0065754D01*
X0037949Y0064492D01*
X0037949Y0065405D02*
X0036588Y0065405D01*
X0035612Y0065405D02*
X0035612Y0065405D01*
X0035612Y0065354D02*
X0035612Y0068429D01*
X0035612Y0068429D01*
X0035612Y0065354D01*
X0035612Y0066403D02*
X0035612Y0066403D01*
X0035612Y0067402D02*
X0035612Y0067402D01*
X0035612Y0068400D02*
X0035612Y0068400D01*
X0034636Y0065405D02*
X0034009Y0065405D01*
X0033250Y0063902D02*
X0024785Y0063902D01*
X0024785Y0068429D01*
X0027374Y0068400D02*
X0031953Y0068400D01*
X0031953Y0067402D02*
X0027162Y0067402D01*
X0027854Y0066403D02*
X0031953Y0066403D01*
X0033250Y0063902D02*
X0035612Y0061539D01*
X0035612Y0052681D01*
X0032659Y0049728D02*
X0029706Y0049728D01*
X0026754Y0052681D01*
X0014943Y0052681D01*
X0012974Y0054650D01*
X0012974Y0062917D01*
X0013958Y0063902D01*
X0016911Y0063902D01*
X0016911Y0073547D01*
X0020651Y0077287D01*
X0030691Y0077287D01*
X0027616Y0075390D02*
X0026754Y0075390D01*
X0026754Y0074391D02*
X0027653Y0074391D01*
X0028016Y0073393D02*
X0026754Y0073393D01*
X0026754Y0072394D02*
X0027676Y0072394D01*
X0027616Y0071396D02*
X0026754Y0071396D01*
X0026754Y0070397D02*
X0027668Y0070397D01*
X0027186Y0069399D02*
X0028528Y0069399D01*
X0030690Y0069399D02*
X0030691Y0069399D01*
X0030690Y0070397D02*
X0030691Y0070397D01*
X0033643Y0080240D02*
X0026754Y0080240D01*
X0022817Y0084177D02*
X0009982Y0071343D01*
X0005100Y0071343D01*
X0007600Y0076388D02*
X0012765Y0076388D01*
X0011766Y0075390D02*
X0009900Y0075390D01*
X0009900Y0074391D02*
X0010768Y0074391D01*
X0009900Y0077387D02*
X0013764Y0077387D01*
X0014762Y0078385D02*
X0009900Y0078385D01*
X0009900Y0079384D02*
X0015761Y0079384D01*
X0016759Y0080382D02*
X0009900Y0080382D01*
X0009900Y0081381D02*
X0017758Y0081381D01*
X0018756Y0082379D02*
X0009900Y0082379D01*
X0009900Y0083378D02*
X0019755Y0083378D01*
X0020753Y0084376D02*
X0009900Y0084376D01*
X0009900Y0085375D02*
X0021752Y0085375D01*
X0022817Y0084177D02*
X0034628Y0084177D01*
X0035612Y0083193D01*
X0035612Y0080240D01*
X0024785Y0050713D02*
X0005730Y0050713D01*
X0005100Y0051343D01*
X0007600Y0046433D02*
X0020621Y0046433D01*
X0020678Y0045434D02*
X0009900Y0045434D01*
X0009900Y0044436D02*
X0021199Y0044436D01*
X0022910Y0042439D02*
X0009900Y0042439D01*
X0009900Y0043437D02*
X0023909Y0043437D01*
X0024194Y0041461D02*
X0026557Y0043823D01*
X0032659Y0043823D01*
X0032659Y0045791D02*
X0023506Y0045791D01*
X0023210Y0046087D01*
X0022102Y0048430D02*
X0009900Y0048430D01*
X0009900Y0047432D02*
X0020965Y0047432D01*
X0024318Y0048430D02*
X0024805Y0048430D01*
X0025455Y0047432D02*
X0025803Y0047432D01*
X0027738Y0047760D02*
X0024785Y0050713D01*
X0027738Y0047760D02*
X0032659Y0047760D01*
X0032659Y0041854D02*
X0029683Y0041854D01*
X0032659Y0041854D01*
X0032659Y0041854D01*
X0032659Y0039886D02*
X0032659Y0036539D01*
X0030691Y0034571D01*
X0028767Y0036448D02*
X0027460Y0036448D01*
X0027460Y0035449D02*
X0028146Y0035449D01*
X0028003Y0034451D02*
X0027402Y0034451D01*
X0028245Y0033452D02*
X0009900Y0033452D01*
X0009900Y0032454D02*
X0029007Y0032454D01*
X0026835Y0031455D02*
X0026672Y0031455D01*
X0026672Y0030457D02*
X0026835Y0030457D01*
X0026835Y0029458D02*
X0026672Y0029458D01*
X0026672Y0028460D02*
X0026835Y0028460D01*
X0026835Y0027461D02*
X0026672Y0027461D01*
X0026500Y0026463D02*
X0027007Y0026463D01*
X0027222Y0024466D02*
X0030222Y0024466D01*
X0030222Y0023467D02*
X0027222Y0023467D01*
X0027222Y0022469D02*
X0030222Y0022469D01*
X0030222Y0021470D02*
X0027222Y0021470D01*
X0027622Y0020472D02*
X0030222Y0020472D01*
X0030222Y0019473D02*
X0027622Y0019473D01*
X0027622Y0018475D02*
X0030222Y0018475D01*
X0030407Y0017476D02*
X0027484Y0017476D01*
X0027222Y0016478D02*
X0030222Y0016478D01*
X0030222Y0015479D02*
X0027222Y0015479D01*
X0027222Y0014481D02*
X0030222Y0014481D01*
X0030701Y0013482D02*
X0026743Y0013482D01*
X0023572Y0015467D02*
X0019622Y0015467D01*
X0019622Y0015280D01*
X0018880Y0015280D01*
X0018880Y0017248D01*
X0017851Y0017248D01*
X0018111Y0017508D01*
X0018309Y0017850D01*
X0018411Y0018232D01*
X0018411Y0020110D01*
X0015427Y0020110D01*
X0015427Y0021079D01*
X0018411Y0021079D01*
X0018411Y0022957D01*
X0018309Y0023339D01*
X0018111Y0023681D01*
X0017832Y0023960D01*
X0017490Y0024158D01*
X0017109Y0024260D01*
X0015427Y0024260D01*
X0015427Y0021079D01*
X0014458Y0021079D01*
X0014458Y0020110D01*
X0011474Y0020110D01*
X0011474Y0018232D01*
X0011576Y0017850D01*
X0011774Y0017508D01*
X0012034Y0017248D01*
X0010247Y0017248D01*
X0010300Y0017445D01*
X0010300Y0020843D01*
X0007600Y0020843D01*
X0007600Y0021842D01*
X0010300Y0021842D01*
X0010300Y0025240D01*
X0010198Y0025621D01*
X0010000Y0025964D01*
X0009721Y0026243D01*
X0009379Y0026440D01*
X0008997Y0026543D01*
X0007600Y0026543D01*
X0009256Y0026543D01*
X0009804Y0027091D01*
X0015079Y0027091D01*
X0015389Y0026781D01*
X0016376Y0026372D01*
X0017446Y0026372D01*
X0018381Y0026759D01*
X0020142Y0026759D01*
X0020142Y0026635D01*
X0020786Y0025991D01*
X0023604Y0025991D01*
X0023604Y0022967D01*
X0023572Y0022967D01*
X0023572Y0025517D01*
X0020925Y0025517D01*
X0020543Y0025414D01*
X0020201Y0025217D01*
X0019922Y0024938D01*
X0019724Y0024596D01*
X0019622Y0024214D01*
X0019622Y0022967D01*
X0023572Y0022967D01*
X0023572Y0022867D01*
X0019622Y0022867D01*
X0019622Y0021619D01*
X0019724Y0021238D01*
X0019922Y0020896D01*
X0020034Y0020784D01*
X0020022Y0020772D01*
X0020022Y0017661D01*
X0020034Y0017649D01*
X0019922Y0017538D01*
X0019724Y0017196D01*
X0019622Y0016814D01*
X0019622Y0015567D01*
X0023572Y0015567D01*
X0023572Y0015467D01*
X0023572Y0015479D02*
X0018880Y0015479D01*
X0018880Y0016478D02*
X0019622Y0016478D01*
X0019886Y0017476D02*
X0018079Y0017476D01*
X0018411Y0018475D02*
X0020022Y0018475D01*
X0020022Y0019473D02*
X0018411Y0019473D01*
X0020022Y0020472D02*
X0015427Y0020472D01*
X0014458Y0020472D02*
X0010300Y0020472D01*
X0010300Y0019473D02*
X0011474Y0019473D01*
X0011474Y0018475D02*
X0010300Y0018475D01*
X0010300Y0017476D02*
X0011806Y0017476D01*
X0011474Y0015479D02*
X0010236Y0015479D01*
X0010300Y0014481D02*
X0011474Y0014481D01*
X0011474Y0013417D02*
X0011474Y0011539D01*
X0011576Y0011157D01*
X0011774Y0010815D01*
X0012053Y0010536D01*
X0012395Y0010338D01*
X0012777Y0010236D01*
X0014458Y0010236D01*
X0014458Y0013417D01*
X0011474Y0013417D01*
X0011474Y0012484D02*
X0010300Y0012484D01*
X0010300Y0013482D02*
X0014458Y0013482D01*
X0015427Y0013482D02*
X0020501Y0013482D01*
X0018411Y0012484D02*
X0032122Y0012484D01*
X0032122Y0011485D02*
X0018397Y0011485D01*
X0017747Y0010487D02*
X0032292Y0010487D01*
X0033290Y0009488D02*
X0010300Y0009488D01*
X0010300Y0008490D02*
X0034289Y0008490D01*
X0035890Y0007491D02*
X0010300Y0007491D01*
X0009771Y0006493D02*
X0036347Y0006493D01*
X0035890Y0011697D02*
X0035522Y0012065D01*
X0035522Y0013317D01*
X0036778Y0013317D01*
X0037422Y0013961D01*
X0037422Y0017072D01*
X0037128Y0017367D01*
X0037378Y0017617D01*
X0039033Y0017617D01*
X0039033Y0016354D01*
X0042017Y0016354D01*
X0042017Y0015386D01*
X0039033Y0015386D01*
X0039033Y0013507D01*
X0039135Y0013126D01*
X0039333Y0012784D01*
X0039612Y0012504D01*
X0039719Y0012443D01*
X0036534Y0012443D01*
X0035890Y0011798D01*
X0035890Y0011697D01*
X0035522Y0012484D02*
X0039648Y0012484D01*
X0039040Y0013482D02*
X0036943Y0013482D01*
X0037422Y0014481D02*
X0039033Y0014481D01*
X0037422Y0015479D02*
X0042017Y0015479D01*
X0042017Y0015386D02*
X0042986Y0015386D01*
X0042986Y0012672D01*
X0042762Y0012543D01*
X0042482Y0012264D01*
X0042289Y0011929D01*
X0042014Y0012205D01*
X0042017Y0012205D01*
X0042017Y0015386D01*
X0042017Y0014481D02*
X0042986Y0014481D01*
X0042986Y0015479D02*
X0047913Y0015479D01*
X0046915Y0016478D02*
X0045970Y0016478D01*
X0045970Y0014481D02*
X0048912Y0014481D01*
X0049785Y0015870D02*
X0054313Y0015870D01*
X0052613Y0012484D02*
X0048994Y0012484D01*
X0048934Y0012543D02*
X0048592Y0012740D01*
X0048211Y0012843D01*
X0046332Y0012843D01*
X0046332Y0009858D01*
X0049513Y0009858D01*
X0049513Y0011540D01*
X0049411Y0011921D01*
X0049214Y0012264D01*
X0048934Y0012543D01*
X0049513Y0011485D02*
X0052613Y0011485D01*
X0052764Y0010487D02*
X0049513Y0010487D01*
X0049513Y0008490D02*
X0054761Y0008490D01*
X0053763Y0009488D02*
X0046332Y0009488D01*
X0046332Y0008490D02*
X0045364Y0008490D01*
X0045364Y0007491D02*
X0046332Y0007491D01*
X0046332Y0006493D02*
X0045364Y0006493D01*
X0042478Y0006493D02*
X0041963Y0006493D01*
X0045364Y0010487D02*
X0046332Y0010487D01*
X0046332Y0011485D02*
X0045364Y0011485D01*
X0045364Y0012484D02*
X0046332Y0012484D01*
X0045963Y0013482D02*
X0051244Y0013482D01*
X0049785Y0015870D02*
X0046439Y0019217D01*
X0033822Y0019217D01*
X0037237Y0017476D02*
X0039033Y0017476D01*
X0039033Y0016478D02*
X0037422Y0016478D01*
X0042017Y0013482D02*
X0042986Y0013482D01*
X0042702Y0012484D02*
X0042017Y0012484D01*
X0048445Y0019473D02*
X0051713Y0019473D01*
X0051244Y0018475D02*
X0049443Y0018475D01*
X0050442Y0017476D02*
X0051244Y0017476D01*
X0051244Y0020472D02*
X0047446Y0020472D01*
X0044265Y0028460D02*
X0044245Y0028460D01*
X0039713Y0025464D02*
X0036122Y0025464D01*
X0037162Y0028460D02*
X0038002Y0028460D01*
X0031522Y0025464D02*
X0025204Y0025464D01*
X0023604Y0025464D02*
X0023572Y0025464D01*
X0023572Y0024466D02*
X0023604Y0024466D01*
X0023572Y0023467D02*
X0023604Y0023467D01*
X0020730Y0025464D02*
X0010240Y0025464D01*
X0010300Y0024466D02*
X0019690Y0024466D01*
X0019622Y0023467D02*
X0018235Y0023467D01*
X0018411Y0022469D02*
X0019622Y0022469D01*
X0019662Y0021470D02*
X0018411Y0021470D01*
X0015427Y0021470D02*
X0014458Y0021470D01*
X0014458Y0021079D02*
X0014458Y0024260D01*
X0012777Y0024260D01*
X0012395Y0024158D01*
X0012053Y0023960D01*
X0011774Y0023681D01*
X0011576Y0023339D01*
X0011474Y0022957D01*
X0011474Y0021079D01*
X0014458Y0021079D01*
X0014458Y0022469D02*
X0015427Y0022469D01*
X0015427Y0023467D02*
X0014458Y0023467D01*
X0011650Y0023467D02*
X0010300Y0023467D01*
X0010300Y0022469D02*
X0011474Y0022469D01*
X0011474Y0021470D02*
X0007600Y0021470D01*
X0007600Y0026543D02*
X0007600Y0026543D01*
X0009295Y0026463D02*
X0016156Y0026463D01*
X0017666Y0026463D02*
X0020314Y0026463D01*
X0020142Y0031455D02*
X0018148Y0031455D01*
X0015674Y0031455D02*
X0009900Y0031455D01*
X0009900Y0030457D02*
X0014581Y0030457D01*
X0014224Y0029458D02*
X0009900Y0029458D01*
X0009900Y0034451D02*
X0013921Y0034451D01*
X0013836Y0035449D02*
X0009900Y0035449D01*
X0009900Y0037446D02*
X0013836Y0037446D01*
X0013836Y0037417D02*
X0017017Y0037417D01*
X0017017Y0040402D01*
X0015139Y0040402D01*
X0014757Y0040299D01*
X0014415Y0040102D01*
X0014136Y0039823D01*
X0013938Y0039481D01*
X0013836Y0039099D01*
X0013836Y0037417D01*
X0013836Y0036448D02*
X0007600Y0036448D01*
X0009900Y0038445D02*
X0013836Y0038445D01*
X0013929Y0039443D02*
X0009900Y0039443D01*
X0009900Y0040442D02*
X0022594Y0040442D01*
X0022594Y0041440D02*
X0009900Y0041440D01*
X0017017Y0039443D02*
X0017986Y0039443D01*
X0017986Y0038445D02*
X0017017Y0038445D01*
X0017017Y0037446D02*
X0017986Y0037446D01*
X0017986Y0036448D02*
X0017017Y0036448D01*
X0017017Y0035449D02*
X0017986Y0035449D01*
X0017986Y0034451D02*
X0017017Y0034451D01*
X0024194Y0036933D02*
X0024194Y0041461D01*
X0025794Y0040442D02*
X0029925Y0040442D01*
X0030083Y0039443D02*
X0027374Y0039443D01*
X0027460Y0038445D02*
X0030477Y0038445D01*
X0031059Y0037446D02*
X0027460Y0037446D01*
X0026437Y0041440D02*
X0029683Y0041440D01*
X0048407Y0041854D02*
X0053328Y0041854D01*
X0054238Y0043207D02*
X0061374Y0043207D01*
X0061374Y0042370D01*
X0060112Y0042370D01*
X0060112Y0039386D01*
X0059143Y0039386D01*
X0059143Y0042370D01*
X0057265Y0042370D01*
X0056883Y0042268D01*
X0056541Y0042070D01*
X0056262Y0041791D01*
X0056064Y0041449D01*
X0055962Y0041068D01*
X0055962Y0039608D01*
X0055913Y0039608D01*
X0055913Y0041533D01*
X0054238Y0043207D01*
X0055006Y0042439D02*
X0061374Y0042439D01*
X0060112Y0041440D02*
X0059143Y0041440D01*
X0059143Y0040442D02*
X0060112Y0040442D01*
X0060112Y0039443D02*
X0059143Y0039443D01*
X0059143Y0037446D02*
X0060112Y0037446D01*
X0060112Y0036448D02*
X0059143Y0036448D01*
X0059143Y0035449D02*
X0060112Y0035449D01*
X0062974Y0036146D02*
X0064155Y0034965D01*
X0072029Y0034965D01*
X0079040Y0031455D02*
X0057781Y0031455D01*
X0057781Y0030457D02*
X0079040Y0030457D01*
X0081340Y0026463D02*
X0057381Y0026463D01*
X0057101Y0025464D02*
X0063335Y0025464D01*
X0063055Y0024466D02*
X0057381Y0024466D01*
X0057381Y0020472D02*
X0063055Y0020472D01*
X0063524Y0019473D02*
X0056912Y0019473D01*
X0057381Y0018475D02*
X0063055Y0018475D01*
X0069192Y0015479D02*
X0079040Y0015479D01*
X0079040Y0014481D02*
X0069192Y0014481D01*
X0069192Y0013482D02*
X0079040Y0013482D01*
X0079040Y0012484D02*
X0072616Y0012484D01*
X0072556Y0012543D02*
X0072214Y0012740D01*
X0071833Y0012843D01*
X0069954Y0012843D01*
X0069954Y0009858D01*
X0073135Y0009858D01*
X0073135Y0011540D01*
X0073033Y0011921D01*
X0072836Y0012264D01*
X0072556Y0012543D01*
X0073135Y0011485D02*
X0079040Y0011485D01*
X0079040Y0010487D02*
X0073135Y0010487D01*
X0073135Y0008490D02*
X0079040Y0008490D01*
X0079040Y0009488D02*
X0069954Y0009488D01*
X0069954Y0008490D02*
X0068986Y0008490D01*
X0068986Y0007491D02*
X0069954Y0007491D01*
X0069954Y0006493D02*
X0068986Y0006493D01*
X0066100Y0006493D02*
X0065585Y0006493D01*
X0068986Y0010487D02*
X0069954Y0010487D01*
X0069954Y0011485D02*
X0068986Y0011485D01*
X0068986Y0012484D02*
X0069954Y0012484D01*
X0073135Y0007491D02*
X0079040Y0007491D01*
X0081340Y0006493D02*
X0072840Y0006493D01*
X0081340Y0005494D02*
X0007600Y0005494D01*
X0007600Y0004496D02*
X0081340Y0004496D01*
X0059969Y0006493D02*
X0049218Y0006493D01*
X0049513Y0007491D02*
X0059512Y0007491D01*
X0062974Y0036146D02*
X0062974Y0044807D01*
X0054313Y0044807D01*
X0051360Y0047760D01*
X0048407Y0047760D01*
X0055913Y0041440D02*
X0056062Y0041440D01*
X0055962Y0040442D02*
X0055913Y0040442D01*
X0062974Y0044807D02*
X0062974Y0047661D01*
X0072423Y0062425D02*
X0072423Y0065280D01*
X0015427Y0012484D02*
X0014458Y0012484D01*
X0014458Y0011485D02*
X0015427Y0011485D01*
X0015427Y0010487D02*
X0014458Y0010487D01*
X0012138Y0010487D02*
X0010300Y0010487D01*
X0011488Y0011485D02*
X0007600Y0011485D01*
D21*
X0036596Y0031028D03*
X0023210Y0046087D03*
X0043289Y0065673D03*
X0055494Y0057504D03*
X0056281Y0050713D03*
X0068092Y0044020D03*
X0072029Y0040870D03*
X0072029Y0031028D03*
X0060218Y0070398D03*
X0072423Y0076303D03*
X0046439Y0080240D03*
X0026754Y0080240D03*
X0024785Y0068429D03*
D22*
X0023407Y0029059D02*
X0016911Y0029059D01*
X0030100Y0029059D02*
X0033053Y0029059D01*
X0033822Y0028290D01*
X0033822Y0022917D01*
D23*
X0030691Y0034571D03*
X0016911Y0029059D03*
X0030691Y0056618D03*
X0029903Y0067642D03*
D24*
X0030100Y0057209D02*
X0024785Y0057209D01*
X0030100Y0057209D02*
X0030691Y0056618D01*
X0035612Y0036933D02*
X0035612Y0032012D01*
X0036596Y0031028D01*
X0041124Y0031028D01*
X0042148Y0022917D02*
X0033822Y0022917D01*
X0033822Y0015517D02*
X0033822Y0011361D01*
X0035809Y0009374D01*
X0039155Y0009374D01*
X0042502Y0022563D02*
X0042148Y0022917D01*
X0042502Y0022563D02*
X0054313Y0022563D01*
X0066124Y0022563D01*
X0066124Y0015870D02*
X0054313Y0015870D01*
X0054313Y0011343D01*
X0056281Y0009374D01*
X0062777Y0009374D01*
X0066320Y0038902D02*
X0066320Y0042248D01*
X0068092Y0044020D01*
X0070848Y0044020D01*
X0072423Y0045594D01*
X0072423Y0047661D01*
X0052935Y0080240D02*
X0046439Y0080240D01*
X0039549Y0080240D01*
D25*
X0024785Y0057209D02*
X0016911Y0057209D01*
M02*
