G75*
%MOIN*%
%OFA0B0*%
%FSLAX25Y25*%
%IPPOS*%
%LPD*%
%AMOC8*
5,1,8,0,0,1.08239X$1,22.5*
%
%ADD10C,0.02165*%
%ADD11R,0.04331X0.03937*%
%ADD12R,0.03937X0.04331*%
%ADD13R,0.03150X0.01181*%
%ADD14R,0.01181X0.03150*%
%ADD15R,0.01181X0.02953*%
%ADD16R,0.02953X0.01181*%
%ADD17R,0.05000X0.02200*%
D10*
X0061399Y0047661D02*
X0064549Y0047661D01*
X0064549Y0047661D01*
X0061399Y0047661D01*
X0061399Y0047661D01*
X0061399Y0052583D02*
X0064549Y0052583D01*
X0064549Y0052583D01*
X0061399Y0052583D01*
X0061399Y0052583D01*
X0061399Y0057504D02*
X0064549Y0057504D01*
X0064549Y0057504D01*
X0061399Y0057504D01*
X0061399Y0057504D01*
X0061399Y0062425D02*
X0064549Y0062425D01*
X0064549Y0062425D01*
X0061399Y0062425D01*
X0061399Y0062425D01*
X0070848Y0062425D02*
X0073998Y0062425D01*
X0073998Y0062425D01*
X0070848Y0062425D01*
X0070848Y0062425D01*
X0070848Y0057504D02*
X0073998Y0057504D01*
X0073998Y0057504D01*
X0070848Y0057504D01*
X0070848Y0057504D01*
X0070848Y0052583D02*
X0073998Y0052583D01*
X0073998Y0052583D01*
X0070848Y0052583D01*
X0070848Y0052583D01*
X0070848Y0047661D02*
X0073998Y0047661D01*
X0073998Y0047661D01*
X0070848Y0047661D01*
X0070848Y0047661D01*
D11*
X0066320Y0038902D03*
X0059628Y0038902D03*
X0047817Y0031028D03*
X0041124Y0031028D03*
X0030100Y0029059D03*
X0023407Y0029059D03*
X0024194Y0036933D03*
X0017502Y0036933D03*
X0039155Y0009374D03*
X0045848Y0009374D03*
X0062777Y0009374D03*
X0069470Y0009374D03*
X0059628Y0080240D03*
X0052935Y0080240D03*
D12*
X0014943Y0013902D03*
X0014943Y0020594D03*
X0042502Y0022563D03*
X0042502Y0015870D03*
X0054313Y0015870D03*
X0054313Y0022563D03*
X0054313Y0029650D03*
X0054313Y0036343D03*
X0066124Y0022563D03*
X0066124Y0015870D03*
X0048407Y0059177D03*
X0048407Y0065870D03*
X0055494Y0067051D03*
X0055494Y0073744D03*
X0024785Y0063902D03*
X0024785Y0057209D03*
X0016911Y0057209D03*
X0016911Y0063902D03*
D13*
X0030691Y0071382D03*
X0030691Y0073350D03*
X0030691Y0075319D03*
X0030691Y0077287D03*
X0042502Y0077287D03*
X0042502Y0075319D03*
X0042502Y0073350D03*
X0042502Y0071382D03*
D14*
X0039549Y0068429D03*
X0037580Y0068429D03*
X0035612Y0068429D03*
X0033643Y0068429D03*
X0033643Y0080240D03*
X0035612Y0080240D03*
X0037580Y0080240D03*
X0039549Y0080240D03*
D15*
X0039549Y0052681D03*
X0041517Y0052681D03*
X0043486Y0052681D03*
X0045454Y0052681D03*
X0037580Y0052681D03*
X0035612Y0052681D03*
X0035612Y0036933D03*
X0037580Y0036933D03*
X0039549Y0036933D03*
X0041517Y0036933D03*
X0043486Y0036933D03*
X0045454Y0036933D03*
D16*
X0048407Y0039886D03*
X0048407Y0041854D03*
X0048407Y0043823D03*
X0048407Y0045791D03*
X0048407Y0047760D03*
X0048407Y0049728D03*
X0032659Y0049728D03*
X0032659Y0047760D03*
X0032659Y0045791D03*
X0032659Y0043823D03*
X0032659Y0041854D03*
X0032659Y0039886D03*
D17*
X0033822Y0022917D03*
X0033822Y0019217D03*
X0033822Y0015517D03*
X0023622Y0015517D03*
X0023622Y0019217D03*
X0023622Y0022917D03*
M02*
