%
M48
M72
T01C0.01378
T02C0.01575
T03C0.04000
%
T01
X36596Y31028
X23210Y46087
X43289Y65673
X55494Y57504
X56281Y50713
X68092Y44020
X72029Y40870
X72029Y31028
X60218Y70398
X72423Y76303
X46439Y80240
X26754Y80240
X24785Y68429
T02
X29903Y67642
X30691Y56618
X30691Y34571
X16911Y29059
T03
X5100Y11343
X5100Y21343
X5100Y31343
X5100Y41343
X5100Y51343
X5100Y61343
X5100Y71343
X5100Y81343
X83840Y81343
X83840Y71343
X83840Y61343
X83840Y51343
X83840Y41343
X83840Y31343
X83840Y21343
X83840Y11343
M30
