G75*
%MOIN*%
%OFA0B0*%
%FSLAX25Y25*%
%IPPOS*%
%LPD*%
%AMOC8*
5,1,8,0,0,1.08239X$1,22.5*
%
%ADD10C,0.13005*%
%ADD11R,0.06600X0.01900*%
%ADD12R,0.01900X0.06600*%
%ADD13R,0.06800X0.05800*%
%ADD14R,0.05131X0.04737*%
%ADD15R,0.04737X0.05131*%
%ADD16R,0.08674X0.02375*%
%ADD17R,0.02769X0.07887*%
%ADD18R,0.09068X0.12611*%
%ADD19R,0.07887X0.02769*%
%ADD20R,0.12611X0.09068*%
%ADD21C,0.03359*%
%ADD22C,0.01421*%
%ADD23C,0.05800*%
%ADD24R,0.09500X0.03200*%
%ADD25C,0.08200*%
%ADD26R,0.05400X0.02200*%
%ADD27R,0.03950X0.04343*%
%ADD28R,0.03280X0.04068*%
%ADD29R,0.02769X0.03950*%
%ADD30R,0.05800X0.03300*%
%ADD31R,0.07887X0.03950*%
D10*
X0019217Y0019217D03*
X0157012Y0019217D03*
X0157012Y0196382D03*
X0019217Y0196382D03*
D11*
X0066014Y0138347D03*
X0066014Y0136347D03*
X0066014Y0134347D03*
X0066014Y0132447D03*
X0066014Y0130447D03*
X0066014Y0128447D03*
X0066014Y0126547D03*
X0066014Y0124547D03*
X0066014Y0122547D03*
X0066014Y0120547D03*
X0066014Y0118647D03*
X0066014Y0116647D03*
X0066014Y0114647D03*
X0066014Y0112747D03*
X0066014Y0110747D03*
X0066014Y0108747D03*
X0110214Y0108747D03*
X0110214Y0110747D03*
X0110214Y0112747D03*
X0110214Y0114647D03*
X0110214Y0116647D03*
X0110214Y0118647D03*
X0110214Y0120547D03*
X0110214Y0122547D03*
X0110214Y0124547D03*
X0110214Y0126547D03*
X0110214Y0128447D03*
X0110214Y0130447D03*
X0110214Y0132447D03*
X0110214Y0134347D03*
X0110214Y0136347D03*
X0110214Y0138347D03*
D12*
X0102914Y0145647D03*
X0100914Y0145647D03*
X0098914Y0145647D03*
X0097014Y0145647D03*
X0095014Y0145647D03*
X0093014Y0145647D03*
X0091114Y0145647D03*
X0089114Y0145647D03*
X0087114Y0145647D03*
X0085114Y0145647D03*
X0083214Y0145647D03*
X0081214Y0145647D03*
X0079214Y0145647D03*
X0077314Y0145647D03*
X0075314Y0145647D03*
X0073314Y0145647D03*
X0073314Y0101447D03*
X0075314Y0101447D03*
X0077314Y0101447D03*
X0079214Y0101447D03*
X0081214Y0101447D03*
X0083214Y0101447D03*
X0085114Y0101447D03*
X0087114Y0101447D03*
X0089114Y0101447D03*
X0091114Y0101447D03*
X0093014Y0101447D03*
X0095014Y0101447D03*
X0097014Y0101447D03*
X0098914Y0101447D03*
X0100914Y0101447D03*
X0102914Y0101447D03*
D13*
X0057181Y0151106D03*
X0048181Y0151106D03*
D14*
X0049335Y0143232D03*
X0056028Y0143232D03*
X0069020Y0157406D03*
X0075713Y0157406D03*
X0120201Y0143232D03*
X0126894Y0143232D03*
X0126894Y0135358D03*
X0120201Y0135358D03*
X0079650Y0088114D03*
X0072957Y0088114D03*
D15*
X0052681Y0109571D03*
X0052681Y0116264D03*
X0044807Y0116264D03*
X0044807Y0109571D03*
X0044807Y0103272D03*
X0044807Y0096579D03*
X0036933Y0109571D03*
X0036933Y0116264D03*
X0029059Y0116264D03*
X0029059Y0109571D03*
X0086146Y0059965D03*
X0086146Y0053272D03*
X0099925Y0053272D03*
X0099925Y0059965D03*
X0107799Y0059965D03*
X0107799Y0053272D03*
X0115673Y0053272D03*
X0115673Y0059965D03*
X0123547Y0059965D03*
X0123547Y0053272D03*
X0131421Y0053272D03*
X0131421Y0059965D03*
X0139295Y0059965D03*
X0139295Y0053272D03*
X0157012Y0069020D03*
X0157012Y0075713D03*
X0155043Y0114295D03*
X0155043Y0120988D03*
X0147169Y0120988D03*
X0147169Y0114295D03*
X0111736Y0091461D03*
X0111736Y0084768D03*
X0103862Y0084768D03*
X0103862Y0091461D03*
D16*
X0048744Y0124728D03*
X0048744Y0129453D03*
X0048744Y0134177D03*
D17*
X0063508Y0179453D03*
X0068429Y0179453D03*
X0073350Y0179453D03*
X0106815Y0179453D03*
X0111736Y0179453D03*
X0116657Y0179453D03*
D18*
X0127484Y0192051D03*
X0095988Y0192051D03*
X0084177Y0192051D03*
X0052681Y0192051D03*
D19*
X0032209Y0162425D03*
X0032209Y0157504D03*
X0032209Y0152583D03*
X0032209Y0147661D03*
X0032209Y0079748D03*
X0032209Y0074827D03*
X0032209Y0069906D03*
X0032209Y0064984D03*
X0144020Y0147661D03*
X0144020Y0152583D03*
X0144020Y0157504D03*
X0144020Y0162425D03*
D20*
X0156618Y0172465D03*
X0156618Y0137622D03*
X0019610Y0137622D03*
X0019610Y0172465D03*
X0019610Y0089787D03*
X0019610Y0054945D03*
D21*
X0146382Y0084571D03*
X0146382Y0099531D03*
D22*
X0140953Y0074161D02*
X0137637Y0074161D01*
X0137637Y0077477D01*
X0140953Y0077477D01*
X0140953Y0074161D01*
X0140953Y0075581D02*
X0137637Y0075581D01*
X0137637Y0077001D02*
X0140953Y0077001D01*
X0140953Y0067255D02*
X0137637Y0067255D01*
X0137637Y0070571D01*
X0140953Y0070571D01*
X0140953Y0067255D01*
X0140953Y0068675D02*
X0137637Y0068675D01*
X0137637Y0070095D02*
X0140953Y0070095D01*
X0133079Y0067255D02*
X0129763Y0067255D01*
X0129763Y0070571D01*
X0133079Y0070571D01*
X0133079Y0067255D01*
X0133079Y0068675D02*
X0129763Y0068675D01*
X0129763Y0070095D02*
X0133079Y0070095D01*
X0133079Y0074161D02*
X0129763Y0074161D01*
X0129763Y0077477D01*
X0133079Y0077477D01*
X0133079Y0074161D01*
X0133079Y0075581D02*
X0129763Y0075581D01*
X0129763Y0077001D02*
X0133079Y0077001D01*
X0125205Y0074161D02*
X0121889Y0074161D01*
X0121889Y0077477D01*
X0125205Y0077477D01*
X0125205Y0074161D01*
X0125205Y0075581D02*
X0121889Y0075581D01*
X0121889Y0077001D02*
X0125205Y0077001D01*
X0125205Y0067255D02*
X0121889Y0067255D01*
X0121889Y0070571D01*
X0125205Y0070571D01*
X0125205Y0067255D01*
X0125205Y0068675D02*
X0121889Y0068675D01*
X0121889Y0070095D02*
X0125205Y0070095D01*
X0117331Y0067255D02*
X0114015Y0067255D01*
X0114015Y0070571D01*
X0117331Y0070571D01*
X0117331Y0067255D01*
X0117331Y0068675D02*
X0114015Y0068675D01*
X0114015Y0070095D02*
X0117331Y0070095D01*
X0117331Y0074161D02*
X0114015Y0074161D01*
X0114015Y0077477D01*
X0117331Y0077477D01*
X0117331Y0074161D01*
X0117331Y0075581D02*
X0114015Y0075581D01*
X0114015Y0077001D02*
X0117331Y0077001D01*
X0109457Y0074161D02*
X0106141Y0074161D01*
X0106141Y0077477D01*
X0109457Y0077477D01*
X0109457Y0074161D01*
X0109457Y0075581D02*
X0106141Y0075581D01*
X0106141Y0077001D02*
X0109457Y0077001D01*
X0109457Y0067255D02*
X0106141Y0067255D01*
X0106141Y0070571D01*
X0109457Y0070571D01*
X0109457Y0067255D01*
X0109457Y0068675D02*
X0106141Y0068675D01*
X0106141Y0070095D02*
X0109457Y0070095D01*
X0101583Y0067255D02*
X0098267Y0067255D01*
X0098267Y0070571D01*
X0101583Y0070571D01*
X0101583Y0067255D01*
X0101583Y0068675D02*
X0098267Y0068675D01*
X0098267Y0070095D02*
X0101583Y0070095D01*
X0101583Y0074161D02*
X0098267Y0074161D01*
X0098267Y0077477D01*
X0101583Y0077477D01*
X0101583Y0074161D01*
X0101583Y0075581D02*
X0098267Y0075581D01*
X0098267Y0077001D02*
X0101583Y0077001D01*
D23*
X0099925Y0162917D03*
X0092051Y0162917D03*
X0084177Y0162917D03*
X0107799Y0162917D03*
X0115673Y0162917D03*
X0029059Y0125516D03*
D24*
X0050255Y0079866D03*
X0050255Y0074866D03*
X0050255Y0069866D03*
X0050255Y0064866D03*
X0070855Y0064866D03*
X0070855Y0069866D03*
X0070855Y0074866D03*
X0070855Y0079866D03*
D25*
X0072681Y0040870D03*
X0072681Y0030870D03*
X0072681Y0020870D03*
X0082681Y0020870D03*
X0082681Y0030870D03*
X0082681Y0040870D03*
X0092681Y0040870D03*
X0092681Y0030870D03*
X0092681Y0020870D03*
X0102681Y0020870D03*
X0102681Y0030870D03*
X0102681Y0040870D03*
X0112681Y0040870D03*
X0112681Y0030870D03*
X0112681Y0020870D03*
X0122681Y0020870D03*
X0122681Y0030870D03*
X0122681Y0040870D03*
X0132681Y0030870D03*
X0132681Y0020870D03*
X0062681Y0020870D03*
X0062681Y0030870D03*
X0062681Y0040870D03*
X0052681Y0040870D03*
X0052681Y0030870D03*
X0052681Y0020870D03*
D26*
X0052544Y0085514D03*
X0052544Y0090714D03*
X0044944Y0090714D03*
X0044944Y0088114D03*
X0044944Y0085514D03*
X0046913Y0158349D03*
X0046913Y0160949D03*
X0046913Y0163549D03*
X0054513Y0163549D03*
X0054513Y0158349D03*
X0123684Y0155675D03*
X0123684Y0153075D03*
X0123684Y0150475D03*
X0131284Y0150475D03*
X0131284Y0155675D03*
D27*
X0127681Y0170791D03*
X0135161Y0170791D03*
X0131421Y0179059D03*
X0040673Y0054650D03*
X0036933Y0046382D03*
X0033193Y0054650D03*
D28*
X0071776Y0170791D03*
X0080831Y0170791D03*
X0099335Y0170791D03*
X0108390Y0170791D03*
D29*
X0071972Y0055437D03*
X0068823Y0055437D03*
X0065673Y0055437D03*
X0062524Y0055437D03*
X0062524Y0049925D03*
X0065673Y0049925D03*
X0068823Y0049925D03*
X0071972Y0049925D03*
D30*
X0090083Y0173197D03*
X0090083Y0176697D03*
X0090083Y0180197D03*
X0044807Y0179453D03*
X0044807Y0182953D03*
X0044807Y0175953D03*
D31*
X0153075Y0059492D03*
X0153075Y0041933D03*
M02*
