%
M48
M72
T01C0.01220
T02C0.01378
T03C0.01575
T04C0.01772
T05C0.02559
T06C0.04000
T07C0.12205
%
T01
X68429Y164886
X72366Y164886
T02
X86146Y155417
X92051Y155437
X90083Y169610
X90083Y183783
X74335Y186539
X68429Y186539
X62524Y186539
X58587Y168823
X50713Y166854
X35358Y173547
X72366Y129453
X71579Y125516
X72760Y118823
X80240Y118429
X80240Y122366
X84177Y123547
X88114Y119217
X95201Y128272
X101894Y125516
X103862Y131421
X105043Y135358
X113705Y143232
X107799Y151106
X115673Y157799
X123547Y178665
X94020Y139295
X79453Y140083
X76303Y131421
X59768Y120004
X69217Y104256
X60555Y95594
X57012Y93626
X60555Y84177
X57012Y81815
X60555Y72366
X57012Y66854
X63311Y61736
X57799Y56618
X76303Y56618
X88114Y73154
X92051Y72366
X99925Y80240
X105831Y80240
X111736Y80240
X119610Y94020
X115673Y95988
X110555Y100319
X107799Y96776
X115673Y103862
X105831Y106224
X102287Y109768
X101894Y113705
X101894Y117642
X88114Y95988
X85358Y88114
X88902Y82602
X92051Y87720
X82996Y74335
X36146Y60555
X136146Y80240
X139295Y84177
X144020Y76303
X143232Y72366
X149138Y67248
X144413Y63311
X153075Y54650
X160949Y86146
X157012Y90083
X155043Y97957
X149138Y107799
X141264Y120398
T03
X147169Y127484
X155043Y127484
X151106Y155043
X139295Y170791
X139295Y182602
X129059Y160417
X138902Y88902
X139295Y42839
X64492Y145201
X64492Y151106
X40870Y186539
X34965Y178665
X25122Y160949
X32996Y105437
X40476Y96579
X36933Y88902
X40476Y84177
X50255Y59374
X40673Y41657
X33193Y41657
T04
X21185Y103862
X21185Y128862
X38902Y138862
X44807Y190476
T05
X146382Y99531
X146382Y84571
T06
X122681Y40870
X122681Y30870
X122681Y20870
X112681Y20870
X102681Y20870
X102681Y30870
X102681Y40870
X112681Y40870
X112681Y30870
X92681Y30870
X92681Y40870
X82681Y40870
X82681Y30870
X72681Y30870
X72681Y40870
X62681Y40870
X62681Y30870
X62681Y20870
X52681Y20870
X52681Y30870
X52681Y40870
X72681Y20870
X82681Y20870
X92681Y20870
X132681Y20870
X132681Y30870
T07
X19217Y19217
X157012Y19217
X157012Y196382
X19217Y196382
M30
