G75*
%MOIN*%
%OFA0B0*%
%FSLAX25Y25*%
%IPPOS*%
%LPD*%
%AMOC8*
5,1,8,0,0,1.08239X$1,22.5*
%
%ADD10C,0.13005*%
%ADD11R,0.03000X0.06000*%
%ADD12R,0.12611X0.08674*%
%ADD13R,0.08600X0.03000*%
%ADD14R,0.05800X0.03300*%
%ADD15R,0.04737X0.05131*%
%ADD16R,0.05131X0.04737*%
%ADD17R,0.07887X0.02769*%
%ADD18R,0.12611X0.09068*%
%ADD19R,0.06312X0.02375*%
%ADD20C,0.03359*%
%ADD21R,0.06706X0.08280*%
%ADD22C,0.08200*%
%ADD23R,0.03950X0.02769*%
%ADD24R,0.03162X0.04737*%
%ADD25R,0.03162X0.03162*%
%ADD26R,0.04540X0.04343*%
%ADD27R,0.07887X0.07099*%
%ADD28R,0.07887X0.03950*%
%ADD29C,0.05800*%
%ADD30R,0.03300X0.05800*%
D10*
X0019217Y0019217D03*
X0157012Y0019217D03*
X0157012Y0196382D03*
X0019217Y0196382D03*
D11*
X0048981Y0183265D03*
X0052681Y0183265D03*
X0056381Y0183265D03*
X0056381Y0174065D03*
X0048981Y0174065D03*
D12*
X0048744Y0138862D03*
X0048744Y0128862D03*
X0048744Y0118862D03*
X0048744Y0108862D03*
X0048744Y0098862D03*
X0048744Y0088862D03*
X0048744Y0078862D03*
X0048744Y0068862D03*
X0127484Y0068862D03*
X0127484Y0078862D03*
X0127484Y0088862D03*
X0127484Y0098862D03*
X0127484Y0108862D03*
X0127484Y0118862D03*
X0127484Y0128862D03*
X0127484Y0138862D03*
D13*
X0121436Y0155417D03*
X0121436Y0160417D03*
X0121436Y0165417D03*
X0121436Y0170417D03*
X0102036Y0170417D03*
X0102036Y0165417D03*
X0102036Y0160417D03*
X0102036Y0155417D03*
D14*
X0095988Y0175165D03*
X0095988Y0178665D03*
X0095988Y0182165D03*
D15*
X0072366Y0160358D03*
X0072366Y0153665D03*
X0058587Y0157602D03*
X0058587Y0164295D03*
X0064492Y0173350D03*
X0064492Y0180043D03*
X0042839Y0164295D03*
X0042839Y0157602D03*
X0040870Y0175319D03*
X0040870Y0182012D03*
X0133390Y0170201D03*
X0133390Y0163508D03*
X0153075Y0048154D03*
X0153075Y0041461D03*
D16*
X0115083Y0178665D03*
X0108390Y0178665D03*
X0040280Y0046776D03*
X0033587Y0046776D03*
D17*
X0032209Y0064984D03*
X0032209Y0069906D03*
X0032209Y0074827D03*
X0032209Y0079748D03*
X0144020Y0156520D03*
X0144020Y0161441D03*
D18*
X0156618Y0172760D03*
X0156618Y0145201D03*
X0019610Y0089787D03*
X0019610Y0054945D03*
D19*
X0144413Y0086933D03*
X0144413Y0089492D03*
X0144413Y0092051D03*
X0144413Y0094610D03*
X0144413Y0097169D03*
D20*
X0146382Y0099531D03*
X0146382Y0084571D03*
D21*
X0155043Y0077051D03*
X0155043Y0107051D03*
D22*
X0122681Y0040870D03*
X0122681Y0030870D03*
X0122681Y0020870D03*
X0112681Y0020870D03*
X0102681Y0020870D03*
X0102681Y0030870D03*
X0102681Y0040870D03*
X0112681Y0040870D03*
X0112681Y0030870D03*
X0092681Y0030870D03*
X0092681Y0040870D03*
X0082681Y0040870D03*
X0082681Y0030870D03*
X0072681Y0030870D03*
X0072681Y0040870D03*
X0062681Y0040870D03*
X0062681Y0030870D03*
X0062681Y0020870D03*
X0052681Y0020870D03*
X0052681Y0030870D03*
X0052681Y0040870D03*
X0072681Y0020870D03*
X0082681Y0020870D03*
X0092681Y0020870D03*
X0132681Y0020870D03*
X0132681Y0030870D03*
D23*
X0132602Y0044020D03*
X0132602Y0047169D03*
X0132602Y0050319D03*
X0132602Y0053469D03*
X0138114Y0053469D03*
X0138114Y0050319D03*
X0138114Y0047169D03*
X0138114Y0044020D03*
D24*
X0146972Y0116657D03*
D25*
X0146972Y0123350D03*
X0155240Y0123350D03*
X0155240Y0115870D03*
D26*
X0141264Y0127189D03*
X0141264Y0139591D03*
X0025122Y0140969D03*
X0025122Y0153370D03*
D27*
X0029059Y0127091D03*
X0029059Y0116067D03*
D28*
X0080240Y0163980D03*
X0080240Y0181539D03*
D29*
X0032996Y0166854D03*
D30*
X0032209Y0097957D03*
X0035709Y0097957D03*
X0028709Y0097957D03*
M02*
